<mxfile host="Electron" modified="2024-05-16T15:26:57.784Z" agent="Mozilla/5.0 (X11; Linux x86_64) AppleWebKit/537.36 (KHTML, like Gecko) draw.io/24.2.5 Chrome/120.0.6099.109 Electron/28.1.0 Safari/537.36" etag="ZvVvQTqL2xeneE02L1va" version="24.2.5" type="device">
  <diagram name="第 1 页" id="pkB_VXY0mXBjEQYdxfJV">
    <mxGraphModel dx="1903" dy="1154" grid="1" gridSize="10" guides="1" tooltips="1" connect="1" arrows="1" fold="1" page="1" pageScale="1" pageWidth="1100" pageHeight="850" math="0" shadow="0">
      <root>
        <mxCell id="0" />
        <mxCell id="1" parent="0" />
        <mxCell id="4iuUuKdbxl8gIZwIrT_o-54" value="" style="shape=curlyBracket;whiteSpace=wrap;html=1;rounded=1;labelPosition=left;verticalLabelPosition=middle;align=right;verticalAlign=middle;strokeColor=#36393d;strokeWidth=2;fontFamily=Helvetica;fontSize=11;fontColor=default;labelBackgroundColor=default;fillColor=#ffff88;" parent="1" vertex="1">
          <mxGeometry x="310" y="50" width="20" height="500" as="geometry" />
        </mxCell>
        <mxCell id="4iuUuKdbxl8gIZwIrT_o-49" value="&lt;div style=&quot;color: #d4d4d4;background-color: #1e1e1e;font-family: Consolas, &#39;Courier New&#39;, monospace;font-weight: normal;font-size: 14px;line-height: 19px;white-space: pre;&quot;&gt;&lt;div&gt;&lt;span style=&quot;color: #569cd6;&quot;&gt;class&lt;/span&gt;&lt;span style=&quot;color: #d4d4d4;&quot;&gt; LlamaRMSNorm(nn.Module):&lt;/span&gt;&lt;/div&gt;&lt;div&gt;&lt;span style=&quot;color: #d4d4d4;&quot;&gt;&amp;nbsp; &amp;nbsp; &lt;/span&gt;&lt;span style=&quot;color: #569cd6;&quot;&gt;def&lt;/span&gt;&lt;span style=&quot;color: #d4d4d4;&quot;&gt; __init__(self, hidden_size, eps=&lt;/span&gt;&lt;span style=&quot;color: #b5cea8;&quot;&gt;1e-6&lt;/span&gt;&lt;span style=&quot;color: #d4d4d4;&quot;&gt;):&lt;/span&gt;&lt;/div&gt;&lt;div&gt;&lt;span style=&quot;color: #d4d4d4;&quot;&gt;&amp;nbsp; &amp;nbsp; &amp;nbsp; &amp;nbsp; &lt;/span&gt;&lt;span style=&quot;color: #ce9178;&quot;&gt;&quot;&quot;&quot;LlamaRMSNorm is equivalent to T5LayerNorm&quot;&quot;&quot;&lt;/span&gt;&lt;/div&gt;&lt;div&gt;&lt;span style=&quot;color: #d4d4d4;&quot;&gt;&amp;nbsp; &amp;nbsp; &amp;nbsp; &amp;nbsp; super().__init__()&lt;/span&gt;&lt;/div&gt;&lt;div&gt;&lt;span style=&quot;color: #d4d4d4;&quot;&gt;&amp;nbsp; &amp;nbsp; &amp;nbsp; &amp;nbsp; &lt;/span&gt;&lt;span style=&quot;color: #569cd6;&quot;&gt;self&lt;/span&gt;&lt;span style=&quot;color: #d4d4d4;&quot;&gt;.weight = nn.Parameter(torch.ones(hidden_size))&lt;/span&gt;&lt;/div&gt;&lt;div&gt;&lt;span style=&quot;color: #d4d4d4;&quot;&gt;&amp;nbsp; &amp;nbsp; &amp;nbsp; &amp;nbsp; &lt;/span&gt;&lt;span style=&quot;color: #569cd6;&quot;&gt;self&lt;/span&gt;&lt;span style=&quot;color: #d4d4d4;&quot;&gt;.variance_epsilon = eps&lt;/span&gt;&lt;/div&gt;&lt;br&gt;&lt;div&gt;&lt;span style=&quot;color: #d4d4d4;&quot;&gt;&amp;nbsp; &amp;nbsp; &lt;/span&gt;&lt;span style=&quot;color: #569cd6;&quot;&gt;def&lt;/span&gt;&lt;span style=&quot;color: #d4d4d4;&quot;&gt; forward(self, hidden_states):&lt;/span&gt;&lt;/div&gt;&lt;div&gt;&lt;span style=&quot;color: #d4d4d4;&quot;&gt;&amp;nbsp; &amp;nbsp; &amp;nbsp; &amp;nbsp; input_dtype = hidden_states.dtype&lt;/span&gt;&lt;/div&gt;&lt;div&gt;&lt;span style=&quot;color: #d4d4d4;&quot;&gt;&amp;nbsp; &amp;nbsp; &amp;nbsp; &amp;nbsp; hidden_states = hidden_states.to(torch.float32)&lt;/span&gt;&lt;/div&gt;&lt;div&gt;&lt;span style=&quot;color: #d4d4d4;&quot;&gt;&amp;nbsp; &amp;nbsp; &amp;nbsp; &amp;nbsp; variance = hidden_states.pow(&lt;/span&gt;&lt;span style=&quot;color: #b5cea8;&quot;&gt;2&lt;/span&gt;&lt;span style=&quot;color: #d4d4d4;&quot;&gt;).mean(-&lt;/span&gt;&lt;span style=&quot;color: #b5cea8;&quot;&gt;1&lt;/span&gt;&lt;span style=&quot;color: #d4d4d4;&quot;&gt;, keepdim=&lt;/span&gt;&lt;span style=&quot;color: #569cd6;&quot;&gt;True&lt;/span&gt;&lt;span style=&quot;color: #d4d4d4;&quot;&gt;)&lt;/span&gt;&lt;/div&gt;&lt;div&gt;&lt;span style=&quot;color: #d4d4d4;&quot;&gt;&amp;nbsp; &amp;nbsp; &amp;nbsp; &amp;nbsp; hidden_states = hidden_states &lt;/span&gt;&lt;span style=&quot;color: #d4d4d4;&quot;&gt;*&lt;/span&gt;&lt;span style=&quot;color: #d4d4d4;&quot;&gt; torch.rsqrt(&lt;/span&gt;&lt;/div&gt;&lt;div&gt;&lt;span style=&quot;color: #d4d4d4;&quot;&gt;&amp;nbsp; &amp;nbsp; &amp;nbsp; &amp;nbsp; &amp;nbsp; &amp;nbsp; variance + &lt;/span&gt;&lt;span style=&quot;color: #569cd6;&quot;&gt;self&lt;/span&gt;&lt;span style=&quot;color: #d4d4d4;&quot;&gt;.variance_epsilon)&lt;/span&gt;&lt;/div&gt;&lt;div&gt;&lt;span style=&quot;color: #d4d4d4;&quot;&gt;&amp;nbsp; &amp;nbsp; &amp;nbsp; &amp;nbsp; &lt;/span&gt;&lt;span style=&quot;color: #569cd6;&quot;&gt;return&lt;/span&gt;&lt;span style=&quot;color: #d4d4d4;&quot;&gt; &lt;/span&gt;&lt;span style=&quot;color: #569cd6;&quot;&gt;self&lt;/span&gt;&lt;span style=&quot;color: #d4d4d4;&quot;&gt;.weight * hidden_states.to(input_dtype)&lt;/span&gt;&lt;/div&gt;&lt;/div&gt;" style="text;whiteSpace=wrap;html=1;fontFamily=Helvetica;fontSize=11;fontColor=default;labelBackgroundColor=default;" parent="1" vertex="1">
          <mxGeometry x="569.48" y="5" width="510" height="290" as="geometry" />
        </mxCell>
        <mxCell id="4iuUuKdbxl8gIZwIrT_o-1" value="&lt;div style=&quot;font-family: Consolas, &amp;quot;Courier New&amp;quot;, monospace; font-size: 14px; line-height: 19px; white-space: pre;&quot;&gt;LlamaModel(LlamaPreTrainedModel)&lt;span style=&quot;background-color: initial;&quot;&gt;.&lt;/span&gt;&lt;/div&gt;&lt;div style=&quot;font-family: Consolas, &amp;quot;Courier New&amp;quot;, monospace; font-size: 14px; line-height: 19px; white-space: pre;&quot;&gt;&lt;span style=&quot;background-color: initial;&quot;&gt;forward(input_ids)&lt;/span&gt;&lt;/div&gt;" style="rounded=1;whiteSpace=wrap;html=1;fillColor=#cdeb8b;strokeColor=#36393d;fontColor=default;labelBackgroundColor=none;align=left;" parent="1" vertex="1">
          <mxGeometry x="40" y="280" width="270" height="40" as="geometry" />
        </mxCell>
        <mxCell id="4iuUuKdbxl8gIZwIrT_o-23" style="edgeStyle=orthogonalEdgeStyle;rounded=0;orthogonalLoop=1;jettySize=auto;html=1;entryX=0.5;entryY=0;entryDx=0;entryDy=0;strokeColor=default;strokeWidth=2;align=center;verticalAlign=middle;fontFamily=Helvetica;fontSize=11;fontColor=default;labelBackgroundColor=default;endArrow=classic;" parent="1" source="4iuUuKdbxl8gIZwIrT_o-2" target="4iuUuKdbxl8gIZwIrT_o-3" edge="1">
          <mxGeometry relative="1" as="geometry" />
        </mxCell>
        <mxCell id="qGL5-rrdzSUx7QEBZHQM-1" value="" style="edgeStyle=orthogonalEdgeStyle;rounded=0;orthogonalLoop=1;jettySize=auto;html=1;" parent="1" source="4iuUuKdbxl8gIZwIrT_o-2" target="4iuUuKdbxl8gIZwIrT_o-5" edge="1">
          <mxGeometry relative="1" as="geometry" />
        </mxCell>
        <mxCell id="4iuUuKdbxl8gIZwIrT_o-2" value="&lt;div style=&quot;font-family: Consolas, &amp;quot;Courier New&amp;quot;, monospace; font-weight: normal; font-size: 14px; line-height: 19px; white-space: pre;&quot;&gt;&lt;div&gt;&lt;span style=&quot;&quot;&gt;nn.Embedding(&lt;/span&gt;&lt;span style=&quot;background-color: initial;&quot;&gt;)&lt;/span&gt;&lt;/div&gt;&lt;/div&gt;" style="rounded=1;whiteSpace=wrap;html=1;labelBackgroundColor=none;fillColor=#cce5ff;strokeColor=#36393d;" parent="1" vertex="1">
          <mxGeometry x="380" y="40" width="120" height="30" as="geometry" />
        </mxCell>
        <mxCell id="4iuUuKdbxl8gIZwIrT_o-24" style="edgeStyle=orthogonalEdgeStyle;rounded=0;orthogonalLoop=1;jettySize=auto;html=1;entryX=0.5;entryY=0;entryDx=0;entryDy=0;strokeColor=default;strokeWidth=2;align=center;verticalAlign=middle;fontFamily=Helvetica;fontSize=11;fontColor=default;labelBackgroundColor=default;endArrow=classic;" parent="1" source="4iuUuKdbxl8gIZwIrT_o-3" target="4iuUuKdbxl8gIZwIrT_o-5" edge="1">
          <mxGeometry relative="1" as="geometry" />
        </mxCell>
        <mxCell id="4iuUuKdbxl8gIZwIrT_o-3" value="&lt;div style=&quot;font-family: Consolas, &amp;quot;Courier New&amp;quot;, monospace; font-weight: normal; font-size: 14px; line-height: 19px; white-space: pre;&quot;&gt;&lt;div&gt;&lt;span style=&quot;&quot;&gt;inputs_embeds&lt;/span&gt;&lt;/div&gt;&lt;/div&gt;" style="rounded=1;whiteSpace=wrap;html=1;labelBackgroundColor=none;fillColor=#ffff88;strokeColor=#36393d;strokeWidth=1;" parent="1" vertex="1">
          <mxGeometry x="380" y="110" width="120" height="30" as="geometry" />
        </mxCell>
        <mxCell id="4iuUuKdbxl8gIZwIrT_o-25" style="edgeStyle=orthogonalEdgeStyle;rounded=0;orthogonalLoop=1;jettySize=auto;html=1;entryX=0.5;entryY=0;entryDx=0;entryDy=0;strokeColor=default;strokeWidth=2;align=center;verticalAlign=middle;fontFamily=Helvetica;fontSize=11;fontColor=default;labelBackgroundColor=default;endArrow=classic;" parent="1" source="4iuUuKdbxl8gIZwIrT_o-5" target="4iuUuKdbxl8gIZwIrT_o-6" edge="1">
          <mxGeometry relative="1" as="geometry" />
        </mxCell>
        <mxCell id="4iuUuKdbxl8gIZwIrT_o-5" value="&lt;div style=&quot;font-family: Consolas, &amp;quot;Courier New&amp;quot;, monospace; font-size: 14px; line-height: 19px; white-space: pre;&quot;&gt;&lt;div style=&quot;line-height: 19px;&quot;&gt;get `position_ids` &lt;/div&gt;&lt;div style=&quot;line-height: 19px;&quot;&gt;and `causal_mask`&lt;/div&gt;&lt;div style=&quot;line-height: 19px;&quot;&gt;and `past_key_values`&lt;/div&gt;&lt;/div&gt;" style="rounded=1;whiteSpace=wrap;html=1;fillColor=#cdeb8b;strokeColor=#36393d;fontColor=default;labelBackgroundColor=none;align=left;" parent="1" vertex="1">
          <mxGeometry x="350" y="180" width="180" height="60" as="geometry" />
        </mxCell>
        <mxCell id="4iuUuKdbxl8gIZwIrT_o-6" value="&lt;div style=&quot;font-family: Consolas, &amp;quot;Courier New&amp;quot;, monospace; font-size: 14px; line-height: 19px; white-space: pre;&quot;&gt;hidden_states = inputs_embeds&lt;/div&gt;" style="rounded=1;whiteSpace=wrap;html=1;fontFamily=Helvetica;fontSize=11;labelBackgroundColor=none;fillColor=#ffff88;strokeColor=#36393d;" parent="1" vertex="1">
          <mxGeometry x="317.5" y="280" width="245" height="30" as="geometry" />
        </mxCell>
        <mxCell id="4iuUuKdbxl8gIZwIrT_o-52" style="edgeStyle=orthogonalEdgeStyle;rounded=0;orthogonalLoop=1;jettySize=auto;html=1;entryX=0.5;entryY=0;entryDx=0;entryDy=0;strokeColor=default;strokeWidth=2;align=center;verticalAlign=middle;fontFamily=Helvetica;fontSize=11;fontColor=default;labelBackgroundColor=default;endArrow=classic;" parent="1" source="4iuUuKdbxl8gIZwIrT_o-7" target="4iuUuKdbxl8gIZwIrT_o-9" edge="1">
          <mxGeometry relative="1" as="geometry">
            <Array as="points">
              <mxPoint x="440" y="440" />
              <mxPoint x="440" y="440" />
            </Array>
          </mxGeometry>
        </mxCell>
        <mxCell id="4iuUuKdbxl8gIZwIrT_o-7" value="&lt;div style=&quot;font-size: 12px;&quot;&gt;&lt;div style=&quot;font-family: Consolas, &amp;quot;Courier New&amp;quot;, monospace; font-size: 14px; line-height: 19px; white-space: pre;&quot;&gt;&lt;div&gt;layer_outputs = &lt;span style=&quot;&quot;&gt;LlamaDecoderLayer(&lt;/span&gt;&lt;span style=&quot;&quot;&gt;config, layer_idx&lt;/span&gt;&lt;span style=&quot;&quot;&gt;)&lt;/span&gt;&lt;span style=&quot;&quot;&gt;.&lt;/span&gt;&lt;/div&gt;&lt;div&gt;&lt;span style=&quot;&quot;&gt;forward(hidden_states,&lt;/span&gt;&lt;span style=&quot;&quot;&gt;causal_mask,&lt;/span&gt;&lt;/div&gt;&lt;div&gt;&lt;span style=&quot;&quot;&gt;position_ids,past_key_values&lt;/span&gt;&lt;span style=&quot;&quot;&gt;)&lt;/span&gt;&lt;/div&gt;&lt;div&gt;hidden_states = layer_outputs[&lt;span style=&quot;&quot;&gt;0&lt;/span&gt;]&lt;/div&gt;&lt;/div&gt;&lt;/div&gt;" style="rounded=1;whiteSpace=wrap;html=1;fontFamily=Courier New;fontSize=11;labelBackgroundColor=none;align=left;fillColor=#cce5ff;strokeColor=#36393d;fontColor=default;" parent="1" vertex="1">
          <mxGeometry x="317.5" y="350" width="450" height="80" as="geometry" />
        </mxCell>
        <mxCell id="4iuUuKdbxl8gIZwIrT_o-39" style="edgeStyle=orthogonalEdgeStyle;rounded=0;orthogonalLoop=1;jettySize=auto;html=1;entryX=0.5;entryY=0;entryDx=0;entryDy=0;strokeColor=default;strokeWidth=2;align=center;verticalAlign=middle;fontFamily=Helvetica;fontSize=11;fontColor=default;labelBackgroundColor=default;endArrow=classic;" parent="1" source="4iuUuKdbxl8gIZwIrT_o-9" target="4iuUuKdbxl8gIZwIrT_o-38" edge="1">
          <mxGeometry relative="1" as="geometry" />
        </mxCell>
        <mxCell id="4iuUuKdbxl8gIZwIrT_o-9" value="&lt;div style=&quot;font-family: Consolas, &amp;quot;Courier New&amp;quot;, monospace; font-size: 14px; line-height: 19px; white-space: pre;&quot;&gt;&lt;div style=&quot;line-height: 19px;&quot;&gt;&lt;span style=&quot;text-align: center;&quot;&gt;LlamaRMSNorm&lt;/span&gt;&lt;span style=&quot;text-align: center;&quot;&gt;()&lt;/span&gt;&lt;br&gt;&lt;/div&gt;&lt;/div&gt;" style="rounded=1;whiteSpace=wrap;html=1;fillColor=#cce5ff;strokeColor=#36393d;labelBackgroundColor=none;align=left;" parent="1" vertex="1">
          <mxGeometry x="380" y="470" width="120" height="30" as="geometry" />
        </mxCell>
        <mxCell id="4iuUuKdbxl8gIZwIrT_o-28" style="edgeStyle=orthogonalEdgeStyle;rounded=0;orthogonalLoop=1;jettySize=auto;html=1;entryX=0.5;entryY=0;entryDx=0;entryDy=0;strokeColor=default;strokeWidth=2;align=center;verticalAlign=middle;fontFamily=Helvetica;fontSize=11;fontColor=default;labelBackgroundColor=default;endArrow=classic;" parent="1" source="4iuUuKdbxl8gIZwIrT_o-11" target="4iuUuKdbxl8gIZwIrT_o-12" edge="1">
          <mxGeometry relative="1" as="geometry" />
        </mxCell>
        <mxCell id="4iuUuKdbxl8gIZwIrT_o-32" style="edgeStyle=orthogonalEdgeStyle;rounded=0;orthogonalLoop=1;jettySize=auto;html=1;entryX=0;entryY=0.5;entryDx=0;entryDy=0;strokeColor=default;strokeWidth=2;align=center;verticalAlign=middle;fontFamily=Helvetica;fontSize=11;fontColor=default;labelBackgroundColor=default;endArrow=classic;" parent="1" source="4iuUuKdbxl8gIZwIrT_o-11" target="4iuUuKdbxl8gIZwIrT_o-15" edge="1">
          <mxGeometry relative="1" as="geometry">
            <Array as="points">
              <mxPoint x="790" y="327" />
              <mxPoint x="790" y="527" />
            </Array>
          </mxGeometry>
        </mxCell>
        <mxCell id="4iuUuKdbxl8gIZwIrT_o-11" value="&lt;div style=&quot;font-family: Consolas, &amp;quot;Courier New&amp;quot;, monospace; font-weight: normal; font-size: 14px; line-height: 19px; white-space: pre;&quot;&gt;&lt;div style=&quot;line-height: 19px;&quot;&gt;hidden_states&lt;/div&gt;&lt;/div&gt;" style="rounded=1;whiteSpace=wrap;html=1;labelBackgroundColor=none;fillColor=#ffff88;strokeColor=#36393d;fontColor=default;" parent="1" vertex="1">
          <mxGeometry x="801" y="311.5" width="120" height="30" as="geometry" />
        </mxCell>
        <mxCell id="4iuUuKdbxl8gIZwIrT_o-29" style="edgeStyle=orthogonalEdgeStyle;rounded=0;orthogonalLoop=1;jettySize=auto;html=1;entryX=0.5;entryY=0;entryDx=0;entryDy=0;strokeColor=default;strokeWidth=2;align=center;verticalAlign=middle;fontFamily=Helvetica;fontSize=11;fontColor=default;labelBackgroundColor=default;endArrow=classic;" parent="1" source="4iuUuKdbxl8gIZwIrT_o-12" target="4iuUuKdbxl8gIZwIrT_o-13" edge="1">
          <mxGeometry relative="1" as="geometry" />
        </mxCell>
        <mxCell id="4iuUuKdbxl8gIZwIrT_o-12" value="&lt;div style=&quot;font-family: Consolas, &amp;quot;Courier New&amp;quot;, monospace; font-size: 14px; line-height: 19px; white-space: pre;&quot;&gt;&lt;span style=&quot;&quot;&gt;LlamaRMSNorm&lt;/span&gt;()&lt;/div&gt;" style="rounded=1;whiteSpace=wrap;html=1;labelBackgroundColor=none;fillColor=#cce5ff;strokeColor=#36393d;fontColor=default;" parent="1" vertex="1">
          <mxGeometry x="801" y="381.5" width="120" height="30" as="geometry" />
        </mxCell>
        <mxCell id="4iuUuKdbxl8gIZwIrT_o-30" style="edgeStyle=orthogonalEdgeStyle;rounded=0;orthogonalLoop=1;jettySize=auto;html=1;entryX=0.5;entryY=0;entryDx=0;entryDy=0;strokeColor=default;strokeWidth=2;align=center;verticalAlign=middle;fontFamily=Helvetica;fontSize=11;fontColor=default;labelBackgroundColor=default;endArrow=classic;" parent="1" source="4iuUuKdbxl8gIZwIrT_o-13" target="4iuUuKdbxl8gIZwIrT_o-15" edge="1">
          <mxGeometry relative="1" as="geometry" />
        </mxCell>
        <mxCell id="4iuUuKdbxl8gIZwIrT_o-13" value="&lt;div style=&quot;font-family: Consolas, &amp;quot;Courier New&amp;quot;, monospace; font-size: 14px; line-height: 19px; white-space: pre;&quot;&gt;&lt;span style=&quot;&quot;&gt;LlamaAttention&lt;/span&gt;()&lt;/div&gt;" style="rounded=1;whiteSpace=wrap;html=1;labelBackgroundColor=none;fillColor=#cce5ff;strokeColor=#36393d;fontColor=default;" parent="1" vertex="1">
          <mxGeometry x="792.79" y="446.5" width="135.25" height="30" as="geometry" />
        </mxCell>
        <mxCell id="4iuUuKdbxl8gIZwIrT_o-36" style="edgeStyle=orthogonalEdgeStyle;rounded=0;orthogonalLoop=1;jettySize=auto;html=1;entryX=0;entryY=0.5;entryDx=0;entryDy=0;strokeColor=default;strokeWidth=2;align=center;verticalAlign=middle;fontFamily=Helvetica;fontSize=11;fontColor=default;labelBackgroundColor=default;endArrow=classic;shape=link;" parent="1" source="4iuUuKdbxl8gIZwIrT_o-15" target="4iuUuKdbxl8gIZwIrT_o-20" edge="1">
          <mxGeometry relative="1" as="geometry">
            <Array as="points">
              <mxPoint x="940" y="527" />
              <mxPoint x="940" y="327" />
            </Array>
          </mxGeometry>
        </mxCell>
        <mxCell id="4iuUuKdbxl8gIZwIrT_o-15" value="&lt;font style=&quot;font-size: 14px;&quot;&gt;+&lt;/font&gt;" style="ellipse;whiteSpace=wrap;html=1;aspect=fixed;rounded=1;strokeColor=default;align=center;verticalAlign=middle;fontFamily=Helvetica;fontSize=11;fontColor=default;labelBackgroundColor=none;fillColor=default;" parent="1" vertex="1">
          <mxGeometry x="846" y="511.5" width="30" height="30" as="geometry" />
        </mxCell>
        <mxCell id="4iuUuKdbxl8gIZwIrT_o-34" style="edgeStyle=orthogonalEdgeStyle;rounded=0;orthogonalLoop=1;jettySize=auto;html=1;entryX=0.5;entryY=0;entryDx=0;entryDy=0;strokeColor=default;strokeWidth=2;align=center;verticalAlign=middle;fontFamily=Helvetica;fontSize=11;fontColor=default;labelBackgroundColor=default;endArrow=classic;" parent="1" source="4iuUuKdbxl8gIZwIrT_o-16" target="4iuUuKdbxl8gIZwIrT_o-17" edge="1">
          <mxGeometry relative="1" as="geometry" />
        </mxCell>
        <mxCell id="4iuUuKdbxl8gIZwIrT_o-16" value="&lt;div style=&quot;font-family: Consolas, &amp;quot;Courier New&amp;quot;, monospace; font-size: 14px; line-height: 19px; white-space: pre;&quot;&gt;&lt;span style=&quot;&quot;&gt;LlamaRMSNorm&lt;/span&gt;()&lt;br&gt;&lt;/div&gt;" style="rounded=1;whiteSpace=wrap;html=1;labelBackgroundColor=none;fillColor=#cce5ff;strokeColor=#36393d;fontColor=default;" parent="1" vertex="1">
          <mxGeometry x="956" y="380" width="120" height="30" as="geometry" />
        </mxCell>
        <mxCell id="4iuUuKdbxl8gIZwIrT_o-35" style="edgeStyle=orthogonalEdgeStyle;rounded=0;orthogonalLoop=1;jettySize=auto;html=1;entryX=0.5;entryY=0;entryDx=0;entryDy=0;strokeColor=default;strokeWidth=2;align=center;verticalAlign=middle;fontFamily=Helvetica;fontSize=11;fontColor=default;labelBackgroundColor=default;endArrow=classic;" parent="1" source="4iuUuKdbxl8gIZwIrT_o-17" target="4iuUuKdbxl8gIZwIrT_o-21" edge="1">
          <mxGeometry relative="1" as="geometry" />
        </mxCell>
        <mxCell id="4iuUuKdbxl8gIZwIrT_o-17" value="&lt;div style=&quot;font-family: Consolas, &amp;quot;Courier New&amp;quot;, monospace; font-size: 14px; line-height: 19px; white-space: pre;&quot;&gt;&lt;span style=&quot;&quot;&gt;LlamaMLP&lt;/span&gt;&lt;span style=&quot;&quot;&gt;()&lt;/span&gt;&lt;br&gt;&lt;/div&gt;" style="rounded=1;whiteSpace=wrap;html=1;labelBackgroundColor=none;fillColor=#cce5ff;strokeColor=#36393d;fontColor=default;" parent="1" vertex="1">
          <mxGeometry x="966" y="446.5" width="100" height="30" as="geometry" />
        </mxCell>
        <mxCell id="4iuUuKdbxl8gIZwIrT_o-33" style="edgeStyle=orthogonalEdgeStyle;rounded=0;orthogonalLoop=1;jettySize=auto;html=1;entryX=0.5;entryY=0;entryDx=0;entryDy=0;strokeColor=default;strokeWidth=2;align=center;verticalAlign=middle;fontFamily=Helvetica;fontSize=11;fontColor=default;labelBackgroundColor=default;endArrow=classic;" parent="1" source="4iuUuKdbxl8gIZwIrT_o-20" target="4iuUuKdbxl8gIZwIrT_o-16" edge="1">
          <mxGeometry relative="1" as="geometry" />
        </mxCell>
        <mxCell id="4iuUuKdbxl8gIZwIrT_o-37" style="edgeStyle=orthogonalEdgeStyle;rounded=0;orthogonalLoop=1;jettySize=auto;html=1;entryX=1;entryY=0.5;entryDx=0;entryDy=0;strokeColor=default;strokeWidth=2;align=center;verticalAlign=middle;fontFamily=Helvetica;fontSize=11;fontColor=default;labelBackgroundColor=default;endArrow=classic;" parent="1" source="4iuUuKdbxl8gIZwIrT_o-20" target="4iuUuKdbxl8gIZwIrT_o-21" edge="1">
          <mxGeometry relative="1" as="geometry">
            <Array as="points">
              <mxPoint x="1086" y="326.5" />
              <mxPoint x="1086" y="526.5" />
            </Array>
          </mxGeometry>
        </mxCell>
        <mxCell id="4iuUuKdbxl8gIZwIrT_o-20" value="&lt;div style=&quot;font-family: Consolas, &amp;quot;Courier New&amp;quot;, monospace; font-weight: normal; font-size: 14px; line-height: 19px; white-space: pre;&quot;&gt;&lt;div style=&quot;line-height: 19px;&quot;&gt;hidden_states&lt;/div&gt;&lt;/div&gt;" style="rounded=1;whiteSpace=wrap;html=1;labelBackgroundColor=none;fillColor=#ffff88;strokeColor=#36393d;fontColor=default;" parent="1" vertex="1">
          <mxGeometry x="959" y="311.5" width="114" height="30" as="geometry" />
        </mxCell>
        <mxCell id="4iuUuKdbxl8gIZwIrT_o-43" style="edgeStyle=orthogonalEdgeStyle;rounded=0;orthogonalLoop=1;jettySize=auto;html=1;entryX=0.5;entryY=0;entryDx=0;entryDy=0;strokeColor=default;strokeWidth=2;align=center;verticalAlign=middle;fontFamily=Helvetica;fontSize=11;fontColor=default;labelBackgroundColor=default;endArrow=classic;" parent="1" source="4iuUuKdbxl8gIZwIrT_o-21" target="4iuUuKdbxl8gIZwIrT_o-42" edge="1">
          <mxGeometry relative="1" as="geometry" />
        </mxCell>
        <mxCell id="4iuUuKdbxl8gIZwIrT_o-21" value="&lt;font style=&quot;font-size: 14px;&quot;&gt;+&lt;/font&gt;" style="ellipse;whiteSpace=wrap;html=1;aspect=fixed;rounded=1;strokeColor=default;align=center;verticalAlign=middle;fontFamily=Helvetica;fontSize=11;fontColor=default;labelBackgroundColor=none;fillColor=default;" parent="1" vertex="1">
          <mxGeometry x="1001" y="511.5" width="30" height="30" as="geometry" />
        </mxCell>
        <mxCell id="4iuUuKdbxl8gIZwIrT_o-31" value="" style="shape=curlyBracket;whiteSpace=wrap;html=1;rounded=1;labelPosition=left;verticalLabelPosition=middle;align=right;verticalAlign=middle;strokeColor=#36393d;strokeWidth=2;fontFamily=Helvetica;fontSize=11;fontColor=default;labelBackgroundColor=default;fillColor=#ffff88;" parent="1" vertex="1">
          <mxGeometry x="766.75" y="310" width="20" height="221" as="geometry" />
        </mxCell>
        <mxCell id="4iuUuKdbxl8gIZwIrT_o-38" value="&lt;div style=&quot;font-family: Consolas, &amp;quot;Courier New&amp;quot;, monospace; font-weight: normal; font-size: 14px; line-height: 19px; white-space: pre;&quot;&gt;&lt;div style=&quot;line-height: 19px;&quot;&gt;return&lt;/div&gt;&lt;/div&gt;" style="rounded=1;whiteSpace=wrap;html=1;labelBackgroundColor=none;fillColor=#ffff88;strokeColor=#36393d;fontColor=default;" parent="1" vertex="1">
          <mxGeometry x="410" y="538.5" width="60" height="30" as="geometry" />
        </mxCell>
        <mxCell id="4iuUuKdbxl8gIZwIrT_o-40" value="&lt;font style=&quot;font-size: 21px;&quot;&gt;x&lt;/font&gt;" style="text;html=1;align=center;verticalAlign=middle;whiteSpace=wrap;rounded=0;fontFamily=Helvetica;fontSize=11;fontColor=default;labelBackgroundColor=none;" parent="1" vertex="1">
          <mxGeometry x="280" y="380" width="50" height="30" as="geometry" />
        </mxCell>
        <mxCell id="4iuUuKdbxl8gIZwIrT_o-42" value="&lt;div style=&quot;font-family: Consolas, &amp;quot;Courier New&amp;quot;, monospace; font-weight: normal; font-size: 14px; line-height: 19px; white-space: pre;&quot;&gt;&lt;div style=&quot;line-height: 19px;&quot;&gt;return &lt;/div&gt;&lt;div style=&quot;line-height: 19px;&quot;&gt;&lt;span style=&quot;&quot;&gt;(hidden_states,)&lt;/span&gt;&lt;/div&gt;&lt;/div&gt;" style="rounded=1;whiteSpace=wrap;html=1;labelBackgroundColor=none;fillColor=#ffff88;strokeColor=#36393d;fontColor=default;align=left;" parent="1" vertex="1">
          <mxGeometry x="947.25" y="578.5" width="137.49" height="45" as="geometry" />
        </mxCell>
        <mxCell id="4iuUuKdbxl8gIZwIrT_o-44" value="&lt;div style=&quot;color: #d4d4d4;background-color: #1e1e1e;font-family: Consolas, &#39;Courier New&#39;, monospace;font-weight: normal;font-size: 14px;line-height: 19px;white-space: pre;&quot;&gt;&lt;div&gt;&lt;span style=&quot;color: #569cd6;&quot;&gt;class&lt;/span&gt;&lt;span style=&quot;color: #d4d4d4;&quot;&gt; LlamaMLP(nn.Module):&lt;/span&gt;&lt;/div&gt;&lt;div&gt;&lt;span style=&quot;color: #d4d4d4;&quot;&gt;&amp;nbsp; &amp;nbsp; &lt;/span&gt;&lt;span style=&quot;color: #569cd6;&quot;&gt;def&lt;/span&gt;&lt;span style=&quot;color: #d4d4d4;&quot;&gt; __init__(self, config):&lt;/span&gt;&lt;/div&gt;&lt;div&gt;&lt;span style=&quot;color: #d4d4d4;&quot;&gt;&amp;nbsp; &amp;nbsp; &amp;nbsp; &amp;nbsp; super().__init__()&lt;/span&gt;&lt;/div&gt;&lt;div&gt;&lt;span style=&quot;color: #d4d4d4;&quot;&gt;&amp;nbsp; &amp;nbsp; &amp;nbsp; &amp;nbsp; &lt;/span&gt;&lt;span style=&quot;color: #569cd6;&quot;&gt;self&lt;/span&gt;&lt;span style=&quot;color: #d4d4d4;&quot;&gt;.config = config&lt;/span&gt;&lt;/div&gt;&lt;div&gt;&lt;span style=&quot;color: #d4d4d4;&quot;&gt;&amp;nbsp; &amp;nbsp; &amp;nbsp; &amp;nbsp; &lt;/span&gt;&lt;span style=&quot;color: #569cd6;&quot;&gt;self&lt;/span&gt;&lt;span style=&quot;color: #d4d4d4;&quot;&gt;.hidden_size = config.hidden_size&lt;/span&gt;&lt;/div&gt;&lt;div&gt;&lt;span style=&quot;color: #d4d4d4;&quot;&gt;&amp;nbsp; &amp;nbsp; &amp;nbsp; &amp;nbsp; &lt;/span&gt;&lt;span style=&quot;color: #569cd6;&quot;&gt;self&lt;/span&gt;&lt;span style=&quot;color: #d4d4d4;&quot;&gt;.intermediate_size = config.intermediate_size&lt;/span&gt;&lt;/div&gt;&lt;div&gt;&lt;span style=&quot;color: #d4d4d4;&quot;&gt;&amp;nbsp; &amp;nbsp; &amp;nbsp; &amp;nbsp; &lt;/span&gt;&lt;span style=&quot;color: #569cd6;&quot;&gt;self&lt;/span&gt;&lt;span style=&quot;color: #d4d4d4;&quot;&gt;.gate_proj = nn.Linear(&lt;/span&gt;&lt;span style=&quot;color: #569cd6;&quot;&gt;self&lt;/span&gt;&lt;span style=&quot;color: #d4d4d4;&quot;&gt;.hidden_size, &lt;/span&gt;&lt;span style=&quot;color: #569cd6;&quot;&gt;self&lt;/span&gt;&lt;span style=&quot;color: #d4d4d4;&quot;&gt;.intermediate_size, bias=&lt;/span&gt;&lt;span style=&quot;color: #569cd6;&quot;&gt;False&lt;/span&gt;&lt;span style=&quot;color: #d4d4d4;&quot;&gt;)&lt;/span&gt;&lt;/div&gt;&lt;div&gt;&lt;span style=&quot;color: #d4d4d4;&quot;&gt;&amp;nbsp; &amp;nbsp; &amp;nbsp; &amp;nbsp; &lt;/span&gt;&lt;span style=&quot;color: #569cd6;&quot;&gt;self&lt;/span&gt;&lt;span style=&quot;color: #d4d4d4;&quot;&gt;.up_proj = nn.Linear(&lt;/span&gt;&lt;span style=&quot;color: #569cd6;&quot;&gt;self&lt;/span&gt;&lt;span style=&quot;color: #d4d4d4;&quot;&gt;.hidden_size, &lt;/span&gt;&lt;span style=&quot;color: #569cd6;&quot;&gt;self&lt;/span&gt;&lt;span style=&quot;color: #d4d4d4;&quot;&gt;.intermediate_size, bias=&lt;/span&gt;&lt;span style=&quot;color: #569cd6;&quot;&gt;False&lt;/span&gt;&lt;span style=&quot;color: #d4d4d4;&quot;&gt;)&lt;/span&gt;&lt;/div&gt;&lt;div&gt;&lt;span style=&quot;color: #d4d4d4;&quot;&gt;&amp;nbsp; &amp;nbsp; &amp;nbsp; &amp;nbsp; &lt;/span&gt;&lt;span style=&quot;color: #569cd6;&quot;&gt;self&lt;/span&gt;&lt;span style=&quot;color: #d4d4d4;&quot;&gt;.down_proj = nn.Linear(&lt;/span&gt;&lt;span style=&quot;color: #569cd6;&quot;&gt;self&lt;/span&gt;&lt;span style=&quot;color: #d4d4d4;&quot;&gt;.intermediate_size, &lt;/span&gt;&lt;span style=&quot;color: #569cd6;&quot;&gt;self&lt;/span&gt;&lt;span style=&quot;color: #d4d4d4;&quot;&gt;.hidden_size, bias=&lt;/span&gt;&lt;span style=&quot;color: #569cd6;&quot;&gt;False&lt;/span&gt;&lt;span style=&quot;color: #d4d4d4;&quot;&gt;)&lt;/span&gt;&lt;/div&gt;&lt;div&gt;&lt;span style=&quot;color: #d4d4d4;&quot;&gt;&amp;nbsp; &amp;nbsp; &amp;nbsp; &amp;nbsp; &lt;/span&gt;&lt;span style=&quot;color: #569cd6;&quot;&gt;self&lt;/span&gt;&lt;span style=&quot;color: #d4d4d4;&quot;&gt;.act_fn = ACT2FN[config.hidden_act]&lt;/span&gt;&lt;/div&gt;&lt;br&gt;&lt;div&gt;&lt;span style=&quot;color: #d4d4d4;&quot;&gt;&amp;nbsp; &amp;nbsp; &lt;/span&gt;&lt;span style=&quot;color: #569cd6;&quot;&gt;def&lt;/span&gt;&lt;span style=&quot;color: #d4d4d4;&quot;&gt; forward(self, x):&lt;/span&gt;&lt;/div&gt;&lt;div&gt;&lt;span style=&quot;color: #d4d4d4;&quot;&gt;&amp;nbsp; &amp;nbsp; &amp;nbsp; &amp;nbsp; down_proj = &lt;/span&gt;&lt;span style=&quot;color: #569cd6;&quot;&gt;self&lt;/span&gt;&lt;span style=&quot;color: #d4d4d4;&quot;&gt;.down_proj(&lt;/span&gt;&lt;span style=&quot;color: #569cd6;&quot;&gt;self&lt;/span&gt;&lt;span style=&quot;color: #d4d4d4;&quot;&gt;.act_fn(&lt;/span&gt;&lt;span style=&quot;color: #569cd6;&quot;&gt;self&lt;/span&gt;&lt;span style=&quot;color: #d4d4d4;&quot;&gt;.gate_proj(x)) * &lt;/span&gt;&lt;span style=&quot;color: #569cd6;&quot;&gt;self&lt;/span&gt;&lt;span style=&quot;color: #d4d4d4;&quot;&gt;.up_proj(x))&lt;/span&gt;&lt;/div&gt;&lt;div&gt;&lt;span style=&quot;color: #d4d4d4;&quot;&gt;&amp;nbsp; &amp;nbsp; &amp;nbsp; &amp;nbsp; &lt;/span&gt;&lt;span style=&quot;color: #569cd6;&quot;&gt;return&lt;/span&gt;&lt;span style=&quot;color: #d4d4d4;&quot;&gt; down_proj&lt;/span&gt;&lt;/div&gt;&lt;/div&gt;" style="text;whiteSpace=wrap;html=1;fontFamily=Helvetica;fontSize=11;fontColor=default;labelBackgroundColor=default;" parent="1" vertex="1">
          <mxGeometry x="10" y="560" width="690" height="290" as="geometry" />
        </mxCell>
        <mxCell id="4iuUuKdbxl8gIZwIrT_o-45" value="" style="shape=image;verticalLabelPosition=bottom;labelBackgroundColor=default;verticalAlign=top;aspect=fixed;imageAspect=0;image=data:image/png,iVBORw0KGgoAAAANSUhEUgAAAYcAAABICAYAAAAd1zmrAAAAAXNSR0IArs4c6QAAAARnQU1BAACxjwv8YQUAAAAJcEhZcwAAFiUAABYlAUlSJPAAABJ4SURBVHhe7Z07ttzEFobbl9gDgAHgHMjtAQC5B8AjBudA7kXMYwAmBgZg54YBmNgwADvGtz+5f7O9VSVVSeo+ffr831pa3S3teu1nSTqGW6/27IwxxpjA/w6fxhhjzBtcHIwxxoxwcTDGGDPCxcEYY8wIFwdjjDEjXByMMcaMcHEwxhgzwsXBGGPMCBcHY4wxI1wcjDHGjHBxMMYYM8LFwRhjzAgXB2OMMSNcHIwxxoxwcTDGGDPCxcEYY8wIFwdjjDEjXBzOmD/++GP30Ucf7f7+++/DmdPBmF988cXut99+O5wx58BPP/002OUqfMKcH59++ungE8fAxeFMUXL+5JNPdu+9997h7DLoCwei2LSA/HfffTd8Z3xzPnz++ee7f/75Z/fll1+6QJjdZ599tvv999+PUiBm/x/SJAk5YU5SOv/jjz8On0BCEyV5zn3zzTeHM69hd8oCS3z44YdDQNwk0BPBD7/++uvwuRTsQVFA79L/XJ+0IQGV5OhLjpjtC4yBvbAbZNuWfOLjjz9+qwjFMUrgP6WxbwryD/R2KbHRmzeW5JmYyzLZB68TxAoHeVhxtwXvfLvn8H0EiiSwSRTPnj1763j58uVw3Lt3782EkH/y5ElRnuPWrVuD0WgToY3GiQfyd+/e3d25c+cgeTN48ODBoK+HDx+OHL8HguHx48dDArl///6g4xcvXuzefffdqk5xMuS++uqroszPP/889EECz/bFH27fvj34g+ata8hnv5AP5bsj5JgDMtkfkL9pm4UMOsYGKqBbJoSrAN8o+Uf0EdaodfbKi0ePHr1pFw/8aos79KuCdRIvrI8ih39sAncOLewD8tV+EsOxV+ThbJ19FXsjzzHH8+fPX+3r1CDLWPy+iTx9+nTQAfpbg/rhQJfYTL/3dwQHqbdBjust9pXsXJ+iVx7iGlrkbxqy6SXFSswzfJ+jVx5dqQ355lJQrLTooJXmdw77gQ/fdsPOc44o01KRkeHOg3G4PbquVXwteta/N/LwuRR2EgJdyh58Z5dUQmP/8MMPw2cPc/ZaY0/8oTbnmwy7RIi2PhbEJo8I2Xmfihaf6fUr5LlbIM/kx07XGdbD2rBP7dFZL4teSKPcrdGt4tqkeJ3hMQGG3UIHCmIlVQKBo/QeARiXNjjYMYISetugD+YfNybmP/ATdCq/2RL6o1+e7fMXc/xVDJuH/HvrcaOPtPTdslGNUODo95IKg+DlNPDodwuai0OvEeJupsXITgT/6axX1yWyzgm6qd23xtZutIWeQFZQirkNhjYLcnhT5hh3D+id5E+fxCNF6OnTp8PGgoPEil2wJy/Gid2t6PX9OHbLppXEqaJ6aRDfrCvH2lKai0NvItDOVUy1cSJ4rR/paCqJt4D+xQcffHD4VodxFWRL71rmArN3N8N8LjWIt0Sbqa0SNP1wd4DuKQR8yiewBQf+ycHjPv0pJcVkLi/0MudTvWte6+PXAfnDFpuFxf/OYcoRSAQ9Cc6J4D9jbqGDP//88/Dt7XdFNVTIe8du3eVhX/wlzmUq8LW5uOQg3oqo07XJmaKArYjdVt0jG+8i1tLqU4ynvCHm1o/8JT5OimgzmDfnS9j8sRIGgHwXUEsGTgSvkTF7HutEaM+Rbyl1TtdLyDZrHmdNJXsFZSw+U4HM5uJSg1hJTUe2Cb91rRXptWbfFuQfJHvNoQVkefegIqU/alhK6wZFY7ZsfqBX/lTIH5hfjt14rdW20RemYqyFxXcOtWTAYnIimOKSE0EPrcYvgVOx6+PIjsRvDq7VbjUl32oz0SLP2AQkSael+OA/yPXceV4X0LOe5RM/fGq3DrKfrrU+qlHCi3eMPTAGY7NBIxbZoDC+5lWD9dCO8fWIiXPR/9ZQW7vGYL7Zp0ptOEeMnNsGFP3KHwDbc/fF2phzvIaeOebAForLqQ1bC4veOdRQIpCzRkpGu+RE0EPUzZLdu4JTh8jna+90FMy9Y0f5kn3ptxaUU5uLS7yLRBdKwHqpqz8ZVpIArmEndItOW97VyA6yYy+MQXxL73zOFQitRz4G2gCQB7ailjcYq5RnSn7FfGryVwW6Q7/oTv7AwXqZL/7AnLmmpwnovMfGJd31sNk7ByadE0EsKNlotN8iEdAPY69VxLnQUoQztMHxOaIecCqd51jS9xqmgriEkk2r/HVCG6ccH1ordtM1knVPElBxWBoDjJU3DlMFAvlcGATt1sRi3HCUIMeU5lsD2R75U6A5UQyir0dfAK7D0mK79E5SdBWHqeRSSgRThlawRPkeUKD+3lpV+Lqy9vZvDTGQ5wJziryGUlBO9S/5tZuFc4SEhp4V7JGot1IsaNd4TJhbKbZLBQLZWmEA2RhbbkH2Kwon89J85zY82oDOyZ2SWu6LayWXAvpWjLKGlny5Jo4jXcUhDhoXUkoEU0i+FCytoChuuaTEFqVdB9YatvcvlSK9ATQ111JQxu9yeFHaXFw1zInEvhZipZagpAf5MRBHxAb+3aKPKb3OoSRes2UuEGzGmFOpMABz4VC/vZR0JBgfmFOktn7dZWT5qwZdl+YU566/OmJteuzEZwvSR68vZBY/VoqUEkEmFhMlgin5Fmiv4L3OxSEaca1OYlC29BXt0luYYv9LglJtJL9ms7A1zAk/jfpZCnoo6UK+C/Hfo6DXLeKjBdlgaiw9nkQfyNUKg8CP1uit5leMP+cjcdxz/WMX9FfKV3FjFzcL8odTs7g4yAhTiaBk5C0TQYtjXzdiMCxB7Zc40xaJEGpBWSs+elRwTihQewtmD2vu8raC2JmLH/yCuJUcSXoK5LfSm3xy6jF0aSzmyPmrSKpL0cbuXOa8+J2DkhBGqyX6ktG2rOZ6z3CK57LHZKviJueC1uBcE8S5LT7RE5QEvhLNuRWHUwRqtNcaH4gbit5+sBXt41wiXNM7Bv3lTOkldYQ2W/sVxanFR/Ap5JnfufnUFOifecMa3YH6WZtXFr9zAAyA0/QmgjUBhxKjIudATm1qtPYFyGb52nx65im0U1pCHKvVwUoFfymsdyooS86K/NrNAvOesm9kbo1c14Fv63sNrjF26/gR9XuVO0VsUksizC+/Y8C2UwVCayrt8JdAPLABRUe1PrMPL/1jF9pq/q0gn21fOjdHHHdtcdiKVY+VphIBlIrJ0kSAsnFU+sD4HHLO0hxQNjse/lEJjoy82gvJcDfDtfgMGDSmDK3f8T8TQH8c8T9ARp/8JZXOM/YUUU/RSXo59WOKnFTQY09Qake6dK7YAz3LxrIvnxlsgKxsLbtFm+uv39Re9ubIduG37MunxpevRCTLIeK4pf/+lcZu8QdtKGpJfg78j/lHGJfxsU1+xzBVILT+pXOB2Jb+OFr/2AVdID+Vl0rgi/hIjOOIrkc4h7yuoTM+pZea/eQP0hXMxS795vFryB/WFpnFdw4ssCewe+UjKBIDUFhwVG5vpwICpWMY0Jt+/sGRgkBGQdk4EdeZXw4QxuV8VjLndNBGL5g0TwKH/4ol53FqEgGyNVjDmmAS0dl6+pNsdNAlsMa5oMzz6g1igU7lE7IxupbNBN+RQzfYRL6AHEeE6xzayWM/nYvzln/xydjI0S92z32CEk6cW9R1yVbI4nc9dlwKNkCf8h/mWCsMgrXmAkE7xdQacp6hvyk9ZPmpu4wSzF9rpS+tR9BnjC3Qb+xPW/SHnfED5ktf0kcEOXTLGHEczgPrzGtlLK63/Ec0gXG3YPE7B0ARU2T5JU4jJdI2Glw7CRw0gmJIBhAdm7kgK0OjbM7JsJKJyAF0HlklDs4RGBpfBokyoCKWC09GDi75JWgOcfwWol57iTprCcoYyL1BLLALQZd1rb7iOeSQj74qu0NpfNm9NreSfwG2y23oKwar9CWfK8E12rXGi+abY6EV5ozO0BVznSsMwDoYj0MFgvacXxLnU/T2N5eXIqyX+TMG39Fl9GlQ7EbfjbGvmM3josMcz6VNQfSFOIZAt8hGv64Rfa3mv60sfqzERLMSp0C+d7IsVNU1O0gtiapSTzmIHEDGlcFiZZbBskFoo3VjSH5Hp6o5csnoEelmaXGITjE3Vkbrjn20EsfqCUpofVSQkU/IfkJJUijJlnxPsiUfRg+1QJR/cR05HcyJPvOcon6UbCkujKs5xY0Dc2YM/Kg1XvK6lyBbtBQGoRjiYA3Mo9cH5mjpL+q4t5CAxpAdan4V7UHM6LfiJtuLWOZatI9ijXkyLtext9rSRvK61qNXtY3+tZTFxaHXaEsSgYxVCmBdy84g5ZSCW0VAipPySoWgVDAAg6kd8vSlhF4yhhJZLdmIPJdeogP2Fgfplz7k6L20Oq/AbiW7zsEcazbONuP9AmR9TPnInP7Vlk8eIxC8GodHDHlN/JaPIst7DfxFj8K4zpgkZa6pMGS/rhHtlZNaD8xDMVry4xq0UxJkzj1ta8he9DUXNyCdR123QhvNuRbH2DrKgWK/lDuEbBP9jz5oR/5ik4DdaUsxjsVC1xhbj65a0Bq2oPudA5Ns2VUI5BUES8lOjwI5cp9ThgIZKyb8WhslgWwUElAuGJLNSUjjtaxdTgNq14MSI9TWXyOO3etcats6JrZEvjeIhXRTGi/bTLLZhjqf7QW1TYFQWwKWQ0E9tR6uIUfy5ZN2gB54/8FvXeP9Ro9u4gZKNlwKOmUu9Eli0samBrogiaF35r7UphnWgc1a+1Ne6t2gZMgFGltM+QrU/EV5BaJd+I7NsTexgL41b+mfa8xBvtJjV8XAmo2C6H7nwIRzsNWQfG+yElpoJiuA3xhxLrGpXZy/2mTjyimyYegjryfPRyhw8zxrSE7tetAcluo6zrEHAhgHbkUBsBTZqxSs6BbbYrOo5+yvCmidj4Gs9cc2uj5luznoj7XnuTBXjtK1FqSP7HtLYS4kL/qjOFAkONjN8ptDd0CcB+y5ZO416GtJnlkzB9k2+5ViUX3nGC75C8jHSgVO9ubge0TXaNe7HubFfOhji0K9+LHSKZDispJyEdAzXFFKHMgATpQNkpHxsxxJomQwGSTLy3FkqDzPDAHJdbWbQoGbE1dtxzsHc2Rs+o3Of27UAoZ5Q9ZvSd8xoNFfvOti7ZxXu3hd50p9Am1lj1Og8ZjPFslAqD/tYjmARInuiC92u9zlEE+XQPSJSDyPvnMMK1ayTxzDLnPkzehazro4KMnLAIDSlQhkMBlUyTXvvGmDkTFUNr5+xwRR2rkzDs+WFShCc8v9AkVMTsOcSzIRZJFhrlNJRjpgbOYdZdl1LEVOVVr/uYBPoCcFLUSfUHGULqPv8J3g5lN2QX9qE2WB3+ySo81JipyP4wO/tZM+FVsngww60g6XdVMsKAbE0Ro/O0fkD9GufNdv/A59x2Qf4y62UwFZ+5irB3ySGGDcrQrSO9/uOXw/OwhuEixGefHixbD4ly9f7h4+fLh78uTJ8F0GQym3b9/e3b17dzj36NGj3bNnz3YPHjzY/fXXX0ObmkPTjv6Q58DQBEHshyRBH3fu3Dm0eg3Xkb9///7oGnN+/PjxcJ11tOyy3n///WEuJC3Wwtwyv/zyyzAnYFz6ZoxS8euBtqyZOZNwSmNfNbIxOkD3HNgeHaDvr7/++s28WQ96oqhz7fvvvx+uIy9bE1ScA9rRj67RLtscGQ6uSQ6/RG/I3rt37yB5XJg3vs1aGNesAz0CdsQHFNfEFPlD50j48i/FoeKG7/gYeQm5NbHYS8xDm4376pqwv4V99fz588Ov13COI4Mc5/c7ncOZeWiDfOxP/ZTGEJKpMde+xL6IvNoXsuGzBPPcO8AbGb7vnfhwdR2sZ2rsc4K5CnSw3+ccfr1NyUacK/mHZOdspvbIxXmcCuzNmnt9y0wj20e96ne2M3GCDTgvf7gKGHvLHCCuTXG4aSjplxIP57iOMxwjkWvsGCDnQkkfKpa14nBpnLN9bhLYgOOqUR7YGheHM4YkgNFLCfHYKAFdxdg1NCc+I9pFn9NcjwUFgbVe1S7VvOZcNiSMT444xkbhrF9I33T2SW/0AvxUMDbPTXnWei7wTBX2QTl88tydl3+cZ656bnzJsOZ9cby4F8LXCb1jElN/PHJseFG+L1RHeb9xiwpx+G7MWUNi1L9GpiAQGASF/krNmGOD3+kv4yKXuDlxcTDGGDPCj5WMMcaMcHEwxhgzwsXBGGPMCBcHY4wxI1wcjDHGjHBxMMYYM8LFwRhjzAgXB2OMMSNcHIwxxoxwcTDGGDPCxcEYY8wIFwdjjDEjXByMMcaMcHEwxhgzwsXBGGPMCBcHY4wxI1wcjDHGjLj177//fnP4bowxxuzZ7f4Pbc7GK+XzAvkAAAAASUVORK5CYII=;" parent="1" vertex="1">
          <mxGeometry x="280" y="760" width="162.92" height="30" as="geometry" />
        </mxCell>
        <mxCell id="4iuUuKdbxl8gIZwIrT_o-46" value="" style="shape=image;verticalLabelPosition=bottom;labelBackgroundColor=default;verticalAlign=top;aspect=fixed;imageAspect=0;image=data:image/png,iVBORw0KGgoAAAANSUhEUgAAAscAAADlCAYAAAC/DVo6AAAAAXNSR0IArs4c6QAAAARnQU1BAACxjwv8YQUAAAAJcEhZcwAAFiUAABYlAUlSJPAAAKO6SURBVHhe7Z0J3FVT18CPWeQzk8gUEiLzTKnMY6ikQZMhSpE36Q2vQqaMGSNTKCSpjCGZJSlTZIh48aaUKZTz7f9q7/uc53Sme++509P+/3637t333HPOs8/ea6+91tprr+AqHIvFYrFYLBaLxeKsqP+3WCwWi8VisViWe6xybLFYLBaLxWKxaKxybLFYLBaLxWKxaKxybFlu+O9//+vMmTNHf7JY8mfevHnOF198oT/VbErVf9555x39ruawPLWbUmLr2ZIrVjm2LBdMmzbNOfHEE51atWrpEoslf1ZbbTXnrLPOcl5++WVdUjMpRf/5559/nO7duzuvvvqqLqk5LC/tptTYerbkis1WoaAKxo4dqz/lxi677OJsueWW8v7jjz92Pv30U3mfC3Toww8/XN5zb3feeae897L55ps7RxxxhP60LAwon3/+ubPqqqvK+TjPn3/+Ka99993X2X777fWRNR8sBwcccIDz1FNPObvvvrsuLS3PP/+88+2338qz8T6fv/76y/m///s/p2XLlvpIx3nttdecTz75RBST1VdfXY7lOI5fccUVnQ4dOugjl8Jzf+mll+R4zr3CCis4v//+u1O3bl2nWbNm+qho5s+f74wePVquxzlWWmklZ/HixZl73GOPPZydd95ZH12dH3/8UfoTv+XF9f/44w+ndu3azvHHH6+Piqfc68iANXX//feX+iqX9pUmpeo/vXr1kuf/6KOP6pL0KIe2VdPbTRImTpwo9UC9Mlb567Zt27Yie4J4+umnnR9++CHz27///lvqmTpmfDRkU8+VInMsRUA90OWeJUuWuF26dHHbtGnjKqWRyYK8VlllFffEE0+U77p27Sov3p9yyilu06ZNXdVZMscOHDhQn811n3jiCbdjx47ukUce6apOkzmmYcOG7mmnnZY5Fy+OO+GEE5a5LvcE/N+/f3+3T58+brt27TLH8JowYYIcE4QSBG7nzp3dTTbZJHP8Djvs4Hbv3t1955139FE1n19++cXdaaed3KFDh+qS8mDYsGFuz5493XXXXTfzfBo0aOCeccYZ8p2XRx55xD3vvPOqPct69eq53bp1c6+//np9VBVKaEsbXXPNNeVYJYhdpZTKeZIye/ZsaXennnpq5pq8mjRpIm1RTb70kcuiBgy3ffv2cl1z/eOOO84dMmSIPiIZ5V5HXtSg6qoB2f3+++91Sc2gVP1n+PDhbv369d0FCxboknQpl7ZVU9tNUu69916p22222SZTt+uvv76MjYypZhwM4oYbbnAbNWqU+d22224r49uHH36oj6giaT1XksyxFBarHPv4448/XDULlcaLAhwFgrtHjx6umiWK0hzEgAEDMh1n0qRJujSYF154QTo4x37zzTe6tDqbbbaZdHKOUTNOd968efqbYLhHBrfWrVu7ixcv1qXLDwgvJinlCsLctI/58+fr0mAGDx6cOXb69Om6NBwUGgaajz76SJfkhhmAttpqK12SDCZzW265pTtjxgxdkhuVUEfAgM5koiZRiv7z3XffubVr13bfeustXVI4yqFt1cR2ky2PP/54pm7vu+8+XRrPrFmz5Dd9+/aNHd+yqedKkTmWwmFjjn3gHsHtAWpmJ/+HgZvlpptucjp16uTMnj1bl1ZnvfXW0+/iz4dr5dlnn3VWXnnl0PPhmlbCQ1wyahBxzjnnHP1NMNyjGtyck046KdQ9VVP57LPPnJtvvtn517/+pUvKD6/7j7CFKDbeeGP9zkn0LF9//XXnnnvucRo2bKhLcmOHHXaQ///3v//J/0lYtGiRLKR64oknHDU506W5UQl1BH369HEefvhhZ/LkybqksilV/+nXr5+E7ey11166pHCUQ9sqdLtRSpiExAwbNsx57LHHnLfffttZsmSJ/rY8MDIG5s6dq9/Fw3jZpk0bRymosc8km3quFJljKRxWOQ4AxTMb+vfv73z99df6U3WyPddWW23ltGvXzvnqq690ybI0adLE6dmzp7x/6KGHROBFQTzWKqusoj8tP1x00UUigA4++GBdUn54J08//fSTfheMV/DGHcsCKiZZxx57rC7JHdok/Prrr7HXNVx22WXO6aef7jRu3FiX5E4l1BE0aNDAOeaYY0S5qwmUov988MEHzv3335+Rb4WmHNpWIdoNfXXgwIESaztkyBBn1qxZzhprrCETXBRExhAWqhFfWw6wXseMlV9++aX8Hwfxxrfeeqtzxx136JJosqnnSpE5lgKiLcgWD+uss464SA4//HBdEs+OO+4YGB9FXBTn4vXmm2/q0mhGjBjhDho0SH+qDrHJ8Pvvv7vbbbednHeDDTZwlaCQ8iD+/e9/u2PGjNGflg+oDyWE3LvuukuXlCdedyIxaWHgMlSKZuZY4tqjOOqoo9w5c+boT/lx++23Z66bJF6dMIq99tortTCeSqgjw9NPPy3XDop7rCRK1X+I9yRsLK22E0e5tK002w3xtYTn3XTTTZExuy+++KJ7yCGHyHHlQJ06daQOqLsksEaI55cNSeu5kmSOpTBYy3EOsJKfValemJV+//33+lNy1DOQ1f1eGjVqFBpWYSD0g/AKZq24obDSWap44IEHxB2GpaCcWX/99fW7aKuDUlKc5s2b60/Rx7Iqe5999nE23XRTXZIfxnIMcVYd2jMWqaFDh1azqORDJdSRgawO/N133323LqlMStF/kKkjRoxwlAKRWtuJo1zaVlrt5t5773Uuv/xyyQLRo0cPyZoQRtOmTZ3nnntOwmfiwvOKgZEzSSzHZKog04M3e0QSktZzJckcS2GwynEO/Pvf/3ZmzJihPy2FeCbCF7IFxbZLly7601JIs5ak09PRTDzgk08+Ke5Iy1LGjRvnbLHFFtXiweIg3RjxeUECjg0Qsom5TUoSIfzzzz9L7O4FF1ygS8Lj8kgjdMstt0h7TItslOPbbrtN0iURM5oWlVBHBtYE7LrrrjJ4VzK59J98eeONN+T5ZhtrnE+/LZe2lUa7IZcv4wDxxNxzEtgkA1c/awSuu+46XZobhGiQ2oz81F5IsYYCHhfnbORMVEghoBT37dtX6jlbktZzJckcS2GwynEOsBDOD7mDN9hgA/0pOUHnIj7Y5DmO49JLLxVLMxCnR07H5R0sUG+++aaz995765J4iJEl1pv47aOPPlos8ZyHuLZWrVpJPV977bUSqzd9+nT9q/xJIoSJHWRCxrEmLi/s2Ouvv14stywsTQuUpCTxgCgiKMeDBg3SJelQCXXk5cADD5Rc54WYTBWDXPoPoPygnLFACgUEZSfs1bFjR/2rKl555RX5v5j9tpzaVj7tBuWLe8RyPGrUKNk8JU5OcR02drnhhhvEAvrCCy+IEpstKMQs+ka5Jv4X447ZuIX7wfvA2pjWrVs75513npQHQbsAlF+eXxiXXHKJGJTq1aunS7IjST1XmsyxFAAJrrBUIyrm+P3335fcxVOmTNEl0UTFHKsZtduhQwdXCXVdEo+JOfby3nvvSW5krtGiRQtdWoXqwMtVzPHUqVOlLq666ipdEs4///wjOSwfffRRXeJKejziLUnDd+ihh2ZS7lx88cWuEoIS65YWalDLtI9+/frp0ipmzpwpKdEMJv8mOaz9kMOzUGm3Nt10U7nuYYcdpkuWhZzgSjnSn9KjUurIcPfdd8v1x40bp0sqi2z6j4Hc1nvssYf8jvytJn7UvGg/5LLl1bBhQ0m95efYY4+VHLBRcbKGtPptObWtfNoNeXW9eXhJh7f//vu706ZN0yXVUYqhe9BBB1UbxxjbyMObDbSVli1bVstHff7550uqMnJV84zgq6++ctUkW/4+2koQSkHPPIs33nhDl1aHsW6fffaRWN9cSVLPlSZzLOljLccRKGHhtG/fXl4nn3yys99++4m7GBdULjDj5VxYOtjdrn79+qmEQpARgHMDO/zcfvvt8j4XsAzeeOONTrdu3cSqcPbZZ4vryLjEcJ098sgj8t7ALJ+df1577TVJE8QLywFl7AoUBVYH3IG4VEn9xf+TJk1ylBDURywFCzvHYdHi/KTj4fkEYawOaoCW/6Og/tWALanuDErQSVwYlgE1gGRS7rBToeozOVssgiAUB1cfBFkdyIRCDKHBWDSCjsWKwT0XAmPVCbMckyqKuinEKuxKqSODuX6S2Ek/WLTWXnttWVOQ74s6w2KXLdn0H8Atj2zk71UKkazJwIvAGgzTHtgtDKskL0IgSL3lh+tutNFGkXGyhrT6bTm1rXzaDRZ7745sm2yyiewsiAXZLye5d+oNS693xzh2vOQZkOkiCVjolSIsaclIGWogdSPX6N27t1jt4ZlnnpF1NGTM8GaC8GJkDATVgdlOnAwV+cSkJ6nnSpM5lvSxynEECBhchOaFW4htonOlRYsW1c6F8hmX+zgpF154obPnnnvKe+Ka2PI1G3BlETtFiAYxX2zbiZLctWtXSQPEtr+cE3coSrAXYq8ow4WJS5QXgzL5HBkgo/jmm29E6T3ttNMk1vCEE04QBd/v3sMFNmrUKFmsQwgL+aU//PBD/W11zALHddZZR/4PA4UfdxcTAC+Um3MwmTHguuXvSjtswAwWfsHKYhnyf3pzboYJYSYTuPZ22203XZIuZuBigEPR8MJgStovnkmhKFYd0c6I48dFz0QYJYLFaf44yijMvcYtqg0ClzTu7bRexx13nD5zcpL2H0BucA3aBBNX+jGKORCvzKJhXMkozXFw3STXTLvflkv/y7XdIGMJ6fOn62T84m/Hnc8EBogxZty55pprAtcFHHbYYc6LL76oP0XDojb6CZM5L0yMgHUzRsE85ZRTZJIydepUZ8MNN5QyP3HKMTG7TMII2cmHpPVcrHbBJIP2zBjLOiLGuCuuuML55Zdf9BGWkqCEmsVHVFgF7hx2qUsjrAJIk5VvWIXh448/lpAPrnXggQdm3JNxYRW4xpRgEjdc2M58uOFIV8e5zznnHF1anXfffVe+Z7vNbLnuuuvkt0qQ65JgcNt36tRJfwrm6quvlnMppVuXBPPDDz8E7saEe5Hfkw6pGChhL9dja2YDITe4hn/77TddspQjjjhCjsU17YU2hPuuUOCa5rq8/KmIevXq5aqBS38qDMWoI5578+bNJXUT5160aJFsb4urX034lrlOGKSJ4vrGpVxpJO0/gGzhWNJPhsEOnRyjFAddEswaa6xR7fmGkXa/LZf+l2u7ef311+U5hPHtt99KKIKaLMnfGLXz4OjRowO3Pg7itttuk+3F/Zxwwgnyd0S1iSCo85VWWkl+y252XhiXaEdqIq5LcidpPRejXVB/hEISHsR7xmy25t96661dNYmQMd1SGqzlOEtw57CTXVowU08LrE7MOIGwA2ajcRAmQYgHVhdW8CrFX39THSwTuOmMVSgIYwWPOiYM89s4SzrWqLgV9Gb2bqwWYeDC9boiDWYxiRKK8n+hCbI6EBqDlR43pBdzrHdVNM8FN3IhMwuQpN/gteqoCZGEuWCdKiTFqCNCiVhQhHWKRP20Rc6PxVEpFOImToJxMbNIqhJJ2n9oB1ggqW9veIMfrMsQFS5BqBrHxV0T0u635dL/cm033IuxcgZRt25dsdriuTQeujCo26iFal7OPPPMwOdlPIvZbh5DnzNpzvyWY9LSEYqjJqq6JHeS1nMx2gUeN3bYpf9Ql/QRNm7ht5wLa7KlNFjlOAeIzUqjkwJCjRzJaXHuuedKhwRinYjvi4KYMeLMiJ9aa621dGkwxPDh8il3TEo9MyhnC2EeUKydwfxCmJhNtkXFFenHHIt7VE1uRalg4OO5F5IglycTKmIAyVCRJE40HwpdR7iCUfKDJr6EGAFx1Un47bff5P8ohaWcSdp/HnzwQVEwWENhfuOHc7B7KPIyKmTChATk2mch135bLv0v13bD8QsWLNCfloW/izzGhFgw+WMXwjD423PJumRgvCG0hXhwo+hmg5EzXuWYNS+0r7TGnqT1XIx2wflMPL4XwjAwds2cOdP59NNPdamlmFjlOAdIR0PDTQNmsWbRQhqgpBDfxyyUDsos9++//9bfVgeFgBkqFrKkM1Ti1YihKmeMNSNqwAgDwVZq5fg///mPc/HFFwfWszkWxZS/j61hGfjClJO08CrHJg8pMelsJMBksdAUuo6YGPI3Ekvohz7KdbDksDFGHKbdYYXLBQZK4unzfbHYlXjGbEnaf1g4C1E52UnPRp0dcsghuiQYPHJ4nHLps5BPvy2X/pdruyHVIgs5g0BZ4/lcddVV8v+oUaMk3V2YgowixvlyhUXYkKvXzcgZJlTUMXG3AwYMEFmTFknruRjtAtnJwtegCYmJ5TYx3JbiYpXjGsjWW2+dUbinTJkSuhsQs1YWGm233XaB7rEgyNpR7onMzUKJXAZaBg3citRhUIgJk4m0MYIVKxzPC8uGWVzpxxwL3CsZPnJZdJUt1AVuT8Cqw+BFDlOTJaXQFLqOaP8sOB0/frwuqYJFRChfWHNMHURhNmDIRTlGqWXizYr/fF94eh5++GF95uQk7T94nMDkWQ+CnRKBhb1xcN1c+izk02/Lpf/l2m74e3kW/okbijELnAlHYKEXcCx1ccYZZ8j9+2ExdD5hg2Yxn/FeeqEfxWUvMsoxfwshf4QdEFKRNHNKEpLWczHaBc+CRelkWvGCYQsrPItZ80kCYMkdqxxXGAzSSUD4HXroofLeGwflhU4J2QhjLDzeVbrliBGw5u8Lg8GDFEje1EUMDkCieD98Z+Ia/WAxMBaGbPG693r16iUbG4ThFcK47LJJEZTPPfLcTSoslGMyBRBvmk18eSXUURBMNPHIJM1SQvYAyCUGdccddxRrL4Njvi/Og+coW5L2HyMHwsKxyHIzYcIEcUMnSfHHdUnZGJcZJM1+C6VsW17yaTfIeu9EyKsYk93HC+EOWJD9CjKeBmJp/dknwiAbEWsODCi0xnIc9BzwuMaF7nnXNpAylDR0WLrTJGk9l7JdEJKxcOFCySCVJIOLJX2schyAUUCTKqJReM+R7/mIx8PFwkw2CViMozqWWfyWi+u1nMFVhTsLS0UU7EJIOInXZWfywmKB8sKzI1WZ2a7bC88EoU6KohEjRujS5HgF69FHHy0pmMLwCmysQVgIk5DvPYJRmlA0CDXIZjFpJdRREOwcRqwx6dyaN2+uS6MxCkOuKaeYiNA38335U3slJWn/YeEQBG33i4KLksDzvvnmm3VpNKQWQ8ahpEWRVr81lKpt+cmn3bA7KvHETBiMYnzllVcuoxgbghRkcvcSOpAEJj08f0JYzHhELmPicoMMKCjNeF7iDDFGxgD3wnqGoDCGfEhaz6VqF+xsSGpWDBBJn4elACjhYfFAOqAVV1wRLdZVHVx29smVRYsWuaeeeqqci9egQYNk551cIH1WmzZt5DwdO3Z0lbKhv4nm/vvvl98EpXJ74okn5Lv69evrkmVhp6JmzZpJ+pqjjjpKdrFitx9SXs2aNUsftRQlZOV8jRs31iXBcN3ffKlwSAXGb0kLFgXp8JTg0J/C2W+//SQdThg///yzXE8pAa4S3FJGeqgePXq4G2ywgez25qVPnz6uUpD0p+qMHDlSzsVru+2206XJGT9+vPxWDQzSZqJQgl2OZUemuXPn6tJ48r1H6NKlS+bapNPKhkqoIz/PPfecnCPbXf+UQlK0NICFIq7/AH2YXc+UEqxLlvLHH3+47du3l++QCUmhvnluyKww0uy3hlK0rSDybTdjx46VMeKggw6SdGBJIM0bKTzZ1e6SSy7RpfH07t1b6sHsyKomNXJdpaRL+YwZM6QcPv30Uxk7Fi5cqEvCIWUbv+ellHVdmi5J67kU7WL27NlyvYsuukiXWEqFVY4VixcvduvWrSsvcguq2a278cYby/98prxevXrupZdeqn8RjZqxSy5kfm/OZc7H/5yLcybJ2ci9rb322m6tWrUk/zLn4H8+q5mtPiqak08+2X3xxRf1pyoY3GrXri2dmk4ZBccyCHIs24VyX36SKsco1v7fP/TQQ/Lb7t2765JgEFiDBw/Wn8JRM24537x583TJspxzzjmSn5LBE2HPtbmvSZMmycSI500eagT7Y489pn+1LAsWLJBBgkkGeS7/+usv/U0yUPi5V3KMxsFkjWNvvPFGXZKMfO8RmNxxbbZ5zZZKqCMvzzzzjCjxDHrZwN9FrnGUhEomSf8B6pqc6m3btpXtggcOHOjusssuomzxzLPByKO4ukur3xqK3baCSKvdkFef3LpMUJKA0kduebZC/ueff3RpPCi/5LO/5pprMnWNIYU8wB06dJDJ1T333ONecMEFbqtWrRIpxrBkyRKZ+LDNeNK/IRuyqeditwvOgWyMm8xZioNVjpdz7rzzTunUUUnkDQhBjmVwCiKJckyiczYT8fPFF1/Ib7FMR3HZZZeJhSkOlH08APx9USC0J06cuMzkgIH6lVdeke+CEt2Hcdppp2U2X0nK/PnzRRlJAkpA3759ZRDKlVzuEaZNmybWnGwG0SDKvY4mTJggif/91nHavX9S54ff0o7fe+89XVKZJO0/BjxbTz/9tGxIkY9Sg3cC40FcPafZb4vd/4JIs90wIUA55ZxRTJ48WTbWYDKRa5/+6KOPpL79llW8ilw/l00seBZvv/22/pQu2dRzMdsF4x8bDfk3aBk2bFjWE3RLOljl2OIef/zxMpueErPr37XXXiuCJR/lmN2XcOMFgUBfa621Qt1SWNoPPvjgxIMeOxzutttu+lNxYHAvd0p9j+VcR+PGjRMrqF/BY9A74IAD9KdwCDnac8899afKphT9x1jrCBFYnki73bCjKSFqtFlCSwhVweuGhw4DQ9OmTSUE45NPPtG/WD4ox/75+eefS1/DcuyHsTnfnRctuWEX5FkkJVerVq1kxTOL+NQsWH9TBfkmWZgUtcjHZCJYtGiR/O9FKReyYx+bjpisB35GjhwpC4nYVMB/D1yfnYRYWJM07RwrhqdNmyZpeIoBqYe4/3Km1PdYznWkFGPJ402eYfI3s5iJFzuKke5wo5jFRGRnYFESOWVrAsXuP7D33ns7xxxzjCwuW14oRLshby7yltzPLF5kgSRpAn/77TepY9o62S3S3ICq3CnH/klqO3JCz54921GTlYzMYVEfKRLZ6TYuq4alMKyAhqzfW5ZzSHnECnNSbpGjEYWAPItvvPGGCFZ20SO9E++9qWpI9E8+ShLIk2uU1cUIYH5L82IFNYLJ5DAlPc3VV18t7/2gPJFHmQGZ3KjktyTfIxkSSKWTbQ5O0gCxepvdoQoN2wuzjTL1Vq6U+h7LtY7mzJnj1K9fPzJzC6v5o9K5sVsg+WYff/xxXVL5FLP/GMg3jWJAqrDlIcdrTWw35Ug51jObDoVt4AJkBIlKQ2gpHFY5tiwDW1Z+8MEHkh+ZbV9JS8MglXZKnSjIRUlKG/5noOQecklNxcC+++67yy5LnTt31qXpM3HiRElvdN111+mS8qPU91gJdZQr/F1dunSR5P9Bm1BUKsXqP37YYYw0ekyS09qqvxypqe2m3LD1bMkWqxxbajwzZsyQHLXk2gzaHjgNSLZPyEiuuWWLQanvsRLqKBewOhN6Qd7YAw44QJfWHIrRf4JgAxOzHX5NpKa3m3LB1rMlF6xybFkuIHarX79+YkFgAwuLJQ3YAOGoo46SHbTYKKCmUor+Q4hLhw4dZC1EMa3WxWB5aTelxtazJVescmxZbmDxA5aorTy7MFks+UAM448//iihPzWdUvQfFpJhsc52rUG5szy1m1Ji69mSK1Y5tlgsFovFYrFYNDaVm8VisVgsFovForHKscVisVgsFovForHKscVisVgsFovForHKscVisVgsFovForHKscVisVgsFovForHKscVisVgsFovForHKscVisVgsFovForHKscVisVgsFovForHKscVisVgsFovForHKscVisVgsFovForHKscVisVgsFovForHKscVisVgsFovForHKscVisVgsFovForHKsWW54b///a8zZ84c/cliyZ958+Y5X3zxhf5Us7H9x+Ll3Xffdf755x/9yWKpWVjl2LJcMG3aNOfEE090atWqpUsslvxZbbXVnLPOOst5+eWXdUnNxPYfix8mhaeccorz119/6RKLpeawgqvQ70vKxx9/7Hz66af6U/YwSB1++OHynj9p7Nix8j5XdtllF2fLLbeU9++8844zdepUeW9YccUVnWOOOcapU6eOLqnOH3/84Tz00ENyX7xWXnllESK8eI9QsRQHhPgBBxzgPPXUU87uu++uS0vL888/73z77beZ9kGb/fPPP6V9/N///Z/TsmVLfaTjvPbaa84nn3wiisnqq68ux3Icx9MOO3TooI9cyueff+689NJLcjznXmGFFZzff//dqVu3rtOsWTN9VDTz5893Ro8eLdfjHCuttJKzePHizD3usccezs4776yPrs6PP/4o/Y/f8uL69IfatWs7xx9/vD4qnnKvIwPW1P3331/qq1zaV5oUsv/89NNPzhNPPCHPgOeGbPz7778zz7l58+bOFltsIcfyfJCpq666qjw3c6x5znvvvbez0047ybGGUaNGSdvj/PyOYznPCSec4Ky77rr6qJpHsfrvRRddJO3jkUce0SXB2OdsqTjUIFIWqI7jduzY0T3yyCNd1XlQ2OXVsGFD97TTTnO7du2aeXGcavTu9ttvnzlulVVWcZcsWSLn4v8uXbq4bdq0WeaYE088Ub4z5+K9UlTdpk2bumrAzRw7cOBAOReoQdrt16+f27NnT3e77bbLHLPvvvtmrunnl19+cXv37u2qTp85XnVa9+STT652bkth4TkoQeoOHTpUl5QHw4YNk/akBHemfTRo0MA944wz5DsvauBxzzvvPHeTTTbJHFuvXj23W7du7vXXX6+PqkIpitKm11xzTTlWDRiuGtTkPEmZPXu2279/f/fUU0/NXJNXkyZN3D59+rivvvqqPnJZlJLqtm/fXq5rrn/ccce5Q4YM0Ucko9zryAsyYvPNN3e///57XVIzKHT/UZMUVylYbosWLTLPDTmJfKedKcVLH+lK3dImeU7mWKW4yZjBsdOmTdNHVsG5d91118zxtJ8ePXq4P/zwgz6iZlKs/qsUbhk7Bw0apEuCsc/ZUmmUjXLsZcCAAZlGPmnSJF0azAsvvOBuu+22cuw333yjS6tQs0nphHxPJ45iwYIF0qFWXHFFUZqDQEA0atQoc3+DBw/W34QzfPhwV83cAzu1pbCgMCFUy5Xu3btn2tL8+fN1aTC0NXPs9OnTdWk4KDTrr7+++9FHH+mS3DDtfautttIlyWjXrp275ZZbujNmzNAluVEJdQRMtlFGahLF6j8//vhj5rmde+65ujQYFDIzqWnZsqUuDQcDRp06ddxzzjlHfru8Uej++9VXX7m1atVK1Ifsc7ZUCmUZc7zeeuvpd0vDJaLABfrss8+K60XNlnVpFbhwcM1A3Llw1d50001Op06dAs8FuGiJMTzkkEPk88UXX+x88MEH8j6M1q1bO9tvv72EaliKx2effebcfPPNzr/+9S9dUn5svvnm+p0jbs8oNt54Y/3OETdpHK+//rpzzz33OA0bNtQlubHDDjvI///73//k/yQsWrRIwpFwpfpdoNlSCXUEffr0cR5++GFn8uTJuqSyKWb/2XDDDUVWQ9wz5rlusMEGmfdxzJo1y1GKoXP99dcnOj4pv/zyi8SaEwIwfPhw57nnnpNFi+VGofsv4RCEL/To0UOXhFOJz9myfFKWyjExTtlAh1CzXEfNYHVJdbI9X//+/Z2vv/5af1oWFGQGVJRpYpuIZyQmKgxioFZZZRX9yVIsiIdD6Tn44IN1SfnhnQgSlxeFV+DHHcsCKiaMxx57rC7JHfoX/Prrr7HXNVx22WXO6aef7jRu3FiX5E4l1BE0aNBA1iH069dPl1Q2xe4/5jknaWM8N0hyLAYM5LX5Tb4woTruuOMk5h3lmNhW2t17770nhhMMNiNHjpS493KgGP33ggsucCZOnOi88MILuiScSnnOluWbGpOtokWLFqHKcbYgTFBmo9LUMFtmhgoIxUGDBsl7S3nAopIxY8YksmaUkvXXX1+/ix4AlixZ4gwZMkR/ih8s/v3vfzuXX365/pQfZmEqfPnll/pdOHhSGCjPPfdcXZIflVBHhjPPPFMWB3700Ue6pDIpRf8xzznuuY0aNSoj6+OORXndZJNNxHOXLyz4at++vTNgwADnuuuukwWjl156qdO1a1cxkPTt21fq7LHHHpMF5iwyK4fUd8XovyjRLJS76667dEk45f6cLRaoSOWYGTnC20ujRo1CQyHiYGUvFmAvWIG+//57/SmYzp07O0cddZS8v+KKK5wpU6bIe0vpeeCBB8RthyWvnEmq+DHoMNgaoo5llfo+++zjbLrpprokP4zlCeIGV/om1rOhQ4em5tqshDoykNWBv/vuu+/WJZVJKfpPEqUJd/8dd9yRsfZHHYtxA6PFJZdcokty5+eff3aaNGkiLxTHbbbZRn+zLGRHQGm+4YYbZHyIC7srNMXqv9QNk4O5c+fqkmDK+TlbLIaKVI7pfF26dNGflsKM0ZvaKRuwIM2YMUN/Wgrxg4RDxMGAjJuIgQTrAZ3aUnrGjRsn1n1vDGocWIaw+AUJYmIJs4nZS0oSxY+Bmdg/XJeGsAGIVEe33HKLtN+0yGZwve222yTdF6mi0qIS6shAuqtdd93Vefrpp3VJZVKK/pNEacJi27NnT0m5B1GKGBMUcjOvs846uiQ38Eh07NjR2WuvvWTji6ThEq+88ooYbfAmxCmMcZDSkFSFfm8m4XzEhnOPYRSr/x544IFiZHrxxRd1STDl+pwtFi8VqRx/9913+l0VhEGYPMfZEnS+fffdN7MYIApcOcyyAVcairaltCCg33zzTXHzJYUYO+LWcYkeffTREm/HeX744QenVatWYgm69tprxToyffp0/av8SaL4DRw4UNoVx5r4+bBjCfXB8mMWvaQBSpK5btTgigLE4Jp2iFEl1JEXlARkQSEmU8WgVP0nTmlCTrNIjHhfcyzGCGJ+/SxcuFDifrmPfLnzzjvlvlmcuO222zrdu3ePVZDpByjS999/v3gVvZO2bEAhPvLII0VZxJKKEejVV1+V7+69916x7LMgkEXf5513npT7KVb/Jdc312FSEEW5PmeLpRqqk5cdN9xwg6Rv4aWEtC5dipopux06dHCVANYl8agZpZxLKc+6pIr3339f8ipPmTJFl0TDvd1+++36UxXkL+YapIFTwkGXLmXx4sVu48aN9SdLoZk6dao8i6uuukqXhPPPP/9I3txHH31Ul7juvHnz3JVXXllSCh566KGZFEUXX3yx5Nskf3Za/Pnnn5m2Ti5tPzNnzpSUSgaT87dz5866pArygxYq7damm24q1z3ssMN0ybKQQ/zJJ5/Un9KjUurIcPfdd8v1x40bp0sqi1L1H56tec5KGdKlVfA8TXq+G2+8MXPs119/LWVelDLqTpw4UX/KHVKB7rPPPq5S9HWJ6ypFVf5m/vYgGB/IzU9qMQPjwwcffKA/JYPnQAozUowazj//fEk9SHpQ7gFIpaYUYKkLchQHUaz+S27xPfbYQ38Kphyfs8Xip+wtx8QRsQgCq8QRRxzh1K9fX2bjuaAUYTkXLyWsnP3220/cR2mEQjDjxgWJ20sJRue3337T30TDDJlUdGEvXFTM9qPcZmEQM82s+tZbb3WGDRumS2s+WKsgbPdCL7Ql4gdPOukkXbI0ZpBYVKyRBx10UCbNFxYk1WccNQDI5zQgdAdXPARZUsic4l00FmV1wXLKPRcC45oNszyxexp1k1bmBy+VUkcGc/04F3YQWJzXXnttST+Z74s6w6qYLaXqP6beQCnY+t1SkJNrrLGGhCmA91j/c2b3Q7INmXSb+UB6NtKUebMNYaHdbrvtHKWcLmNBJszujTfeEFc/WY0M3bp1kzR/ScHqrhThTFYkA2nV+Ht79+4tlnh45plnZL0N9ePN7OKlWP2X5xLX7svxOVssfspeOSYLRZs2beSF64jYorh8xWEQAmHOZc6XVu5hOjHCH9hOM6kbjXgx3FAo/4SFEKJB9gvSTPFiFS4rxskPyUSBdDxBXH311RLzTDylgThMhA2C1IR+eOHaxGkTX1iTMIs142LQmHDgYj/77LN1yVIoN+dgImXAZYyykXbYQFhqIwZmcpR68/yawcJ/LG0Gl+Zuu+2mS9LFDK4Mwn6FgDZJ2i9yhBeKYtURoRDk9SU0gIkzSh+L0/yxnlGYe81lgTBuc9JhpfXCNZ0tpeo/XsXO/+z+85//SGiGIUppoi2mlYVkwoQJmUXXXlCQWbSNO9/0BwwQhDyg0HoVY2jatGlW+a9RrmmDTJS8mDzKyG0zYTzllFNk7Jk6daqME0EUq//yDHkeUcahYj5nQnhYn4QewQJcYsdNWIrFEonqKGVHVFgF4LZKK6yCkIfNNtss77AKA+40c+/PPvuslCUJq+jUqZP85sUXX9Ql1Rk/fryEbBx44IHu77//rkuXogYjd6211pLfv/7667q0ir333jvw+kqhlt/g+qxJmL9LTSx0STBsLXrffffpT1UQasPv2XmxGJhtT5s0aaJLloYP8VzUIKNLlnLEEUfIsQ0bNtQlS6E/EDJQKHCJc11ec+bM0aVL6dWrl3vLLbfoT4WhGHXEc2e7d7aW5ty4fO+9917ZpYs+5L9OGB9++KFc37i9K41S9R9c+vzOf22lUIt73ctbb72VOXbkyJG61BUXe9++ffWn/CEMwRtS4eeaa66R3VTvuusu2XIZWRwGsjspt912m2zd7YftlvmbR4wYoUuSUaz+a8ILlRKvS5alWM9ZTVJkXDWhJuyuyfbTnItd9CyWKCpyQZ4SWPpd/pCuhqTtaUH6HuM2ZMaK9TYJxhrutzgYWJRx/PHHi/UBC4wXfqOEpSzaCFpEE7YBSefOnWWWjtW5JmEsDMayEsZGG20k1nY/xrLAIpxiEGTpVBMwsXLgYvRijvWu3n700UfFfZ1NZoFsCcuVyqKjt99+Wxa4FZJi1BGubxY9EW7FRgL0Sc6PpVMN0uKBSYJxg3u9OJVEqfpPkJWQDBhKAZdFcF68x5rnjMV68ODBEmaTFjzDqA2cyHiCjL/qqqsCLcZeWABKdokkkOEiqP7JoQ3ZbsxSrP6bpO0X4zmT3YNQR2QEFn7AE6ImM+JNIVtNNmEuluWPilSOccuYBp8GO++8s7PmmmvqT/mBGwyXGO5bEsCntRECbLbZZvL/p59+Kv97YdUyrr4o4ewHwUOoRk3b1tqk4Ata3ZwEQlmgWDuDmQHADBTk3SbeHHepH3MssXpqcivx8rhU02xnQQSlg2KQYjBjEMqm3eVCoesIdzVKQtBEuW3btvI/cZlJMC5lr/u4kihV/zHPDcxzZuLOpMS/61nQsYQ1EC631lpryec0oC5o52EQY4zS26lTJ2lftLcwSPcZpWjHQZo8wlWI8c42P3ex+m+Stl+M50yoIiGFQVkssu3PluWTilSOmZ2axQhpgFJJrF9aEN9kZuIsWCH/ar4wsyZ3KsKaBSJeWLzB4juSzUcJcj8LFiyQ+Gj/Lk4IeJQP9qo3i3O4BouFEKxx1+BY4t8YJKMs56ThwRLOghIWV4RBvCeCcebMmfIb4J75m4MwFhf+vmzhby+1ckzcHVuhMsHyY47lGfD3sSPcOeeck1FoCoV3cDW7Vt14440SS8nkstAUuo4YaPkbiV/2g7zhOliuUHDiMO0Oy2ousBbgww8/zPtFGjD6YraUqv/4FSH6ODInyFOIEcJsUsGx3CtylsXQaYIXMMgYAShpkyZNEosn8a/EvdPOghRk2mI2sjmIl156Sf7PxaNVrP7Lc2CyEKW4FuM5b7311tJvg8Z1E8dt4rctliAqUjmuBJgJk1kD8nVZsYiCBRi//PKLhFR4FxQhcHEDI8RZ4Ru2YM8PlrQdd9xR7pFwDC8scuA7cno++OCDck1m9QhncnbyG/Kg+kGJ5VwmWT6KN1lBWJRjLAoGwk9YhPjNN9+IZY+V7SyYQKn2w6ptPAUIOlaC85nJESvGyT3qxyzOymVwZ4LBoiyEq7HUe8E9nzZmsMAVyS6L1NWee+4pZX68Awv3inUkl0VX2UJdGKsOEyRWiZNntVi7UhW6jlAIaa/jx4/XJVXQJlF46Hd+y1YQZkKYi3KMUks7JytBvi+yROTiOi5V/8HaaCY7KEJs00z+5CA4zlgnORb5gZs9bQ8GGZKYvPvBO4g8RDE2yhvbR4cpyMitbPJGB2E21yA8yA9tNMrAUKz+S9uPa/fFeM7UNe33wgsv1CVVMDZBvs/DUsNRnbjsiFuQly1RC/Ky5frrr5fFEkmYPHmyLKLj2nEL8s4880w57thjj5X3vE4//XS3RYsWkoeZ3M5qhq2PXpYePXrI75Vw0iVVHHDAAYHXV8JGfsOCDD9KaZXvWNykFGRduhQ1eLu77767/lTF2Wef7W6yySbVFj2xsEkp77JQ0UDZaquttkw+zLZt27pqVu/OnTtXl1ShBhe5n2OOOUbqlUWJG2+8sduzZ099RBW0GY698sordUkw/P1jxoyptvCFHKb8tmPHjrqkiueeey7wesCiy6D7TgJtimvy2n///d3vvvtOf7MsjzzySOZYpay5M2bM0N/Ek889wlZbbSXXZVEci9uU0qC/SUYl1FEQLIKiHz///PO6JBoWqXFtFtHmAvXEYsB8X1ELyaIoRf8x0P/5vZroy+KpKJBDHMv/LIYrBL/++qurJvvyTAzDhg1zTznllGplXsgP3b1792p5kJFtSoHVn+JhUah3kTgy0+TvVsqtLq3i4IMPlgWSUeTbf5PANdSkVX8Kp1TPmeepJgqSK/rHH3/UpRbLspSl5Vjdl35X/X2umHOkcS5ivpLufKWU0tBdi8LgeGLAeLE4iFRVXBOrFdYgFtAFueeMqygbon5DrlJgYcOpp54q7w1YlUmR461PLMnkU8bd5V30hLWCxSWkw8Itbcr4O7t27SqfDeTYZLaPpc+PuR/cxNQreVxxx+Ea9IObEBd6kBXaC6nzWOToPYfJC4vlywt/K6mOSPPlB/ccC15Io8TCyGzxWjrVoCUpB8PwxvJhaadNJCHfewTjmmXBFS7LbBbGVkIdBUFMKbGJtN/mzZvr0miMZYptpHMBSySLAfN95RrfWuz+48U8Z0Km4nYbNc8Zz1ra6RUNrEVhhz/aAbDoTk2SJFzOWIz98DfS1o0FmfaAVy1peyB9HLvNEZZiFrZhvSbUjWt60xYCFmzGhziLbT79NwncH1Zp7iWOUj1nYpBZFEmdhaW9s1ig7JRj4zY1TJw4Mae4OQNKHOEIQFxTLrlHYfHixc6YMWMkHIGVruQGThJDRmcOimPMBuK3WOxBXBuxlklXzadBkEBHMUXAeHO/IrwZCCh78sknq72IW6auvLF7hGeQRB/hiKuV1d6jR4+W7/yJ4b2gGBvCXNzcHzlqjZIShFHCUQIYiIABjxAVtg2n3XhhwCMvdtBCGOKmUdT5+8Pcg1GYgYLBK+7ZmmOZLGRzrXzvEczgSnskv202VEId+UEJwlX++OOPZxbxJIF2RUhSlAJfzhS7/3gxz47QrrgJvzmWjBF+hTFNyDNPG8D9j7GCULO48Bry3KMgI+MwBPhD16IgPzVQl0xyWG9CloWePXuKHGVhnoH4dM7NuBBHPv03CcaoERT24acUzxlZ8Prrr4ssMpuMWCxhlI1yTGoW4mZp/AxKWB95YW2gjBeC1R+7GgQChGN5Ye1BWHOuRYsWSZwi5ZwviUABFDnSwJC2iBgoFEAGSzp1nNBDuDFoeK2puWJW3mKhzSUeMBcYKJNAvCbwDKlv72vfffeVFEReiwLPmGfBpi48L6yBRgFBgQqD8yUBqwj3hDUjCJ4dlh2yE6C0MYCRrotBg4EQQU/7wHrPvWGBJEY6CCxoLMIkFhvLDhOHbDDCn7ZEe4nCHIsHwbxPQr73CGZwJZ4+23jaSqgjL2TCoH2gqGSzaxh/F5uNEKtayRSz/3jheTVu3FjSYMbBschyJjCFhAkA3g4WgqHsxinGBha7kTWB9RF169bVpfGQYpM1FoceeqjUH+s2MB7Q9hmDuIfhw4fLhAOrK3HlUQvgDPn03ySQ7YW6SeJhKfZzRjHGWmwmrhZLLEoRsZQBJub45YjE+2pi4CrFQo5jP30vSkhKeTYxx8TM8ZugmGNis/iO+/KjBjn5zhtzRzJ8ytTAqEvCeeqppySGs3fv3rpkKcTAcQ4T46wUDfkfSOTOd1EbsHiZPXu2XOPOO+/UJcEsXLhQEspzvBfqWg1s8l1QMv4wiK1Wyr7+lAylgLhKkdCfoqHOSX7vrZtsyeUeYdq0aW7//v2rxVLmQrnX0YQJEyQu0x/DqZTB0DhTA7+lnSoFWZdUJqXqP/fff3/i2Fw2kwjbNKkQ0AZZE0KMbFS8Kn/7+eefL/G0M2fO1KXZ89FHH0kdEj/uZdasWdLOPv74Y12SjLT6bxjEZh9//PH6UzTFfM5sgML6Ha88QP6wRsZiCcMqx2VCEuV4+PDhcszOO++sS6ootXL86aefurVq1XJbtWqlS6qDMDQDxSGHHCID74IFC+SzgYUunBflmEV93kV82SrHcPjhh8uCrGLCblnlTqnvsZzraNy4cbJ46o8//tAlS2FgpR/FceSRRyZakFQJlKL/VAK0kWbNmslCzRtvvNEdPXq0O3bsWJFNLETcb7/93FtvvTWvCWyl8fbbb4t8znURaqEYMGCAO3jwYP2pCiYKQWObxWIoywV5yyOkqQFCP/yo5yShGcSc1alTR9yWfszvgnYm4ruwcoj6Luh+gn6Hq4q0arge1UChS5dCeicW6uBShy222EJCU4g3NqiBRGLNyZFJzDEvbyooc02TJisJpP1RQrBaDHshYfFinMu/1JT6Hsu5jlhHQJgPcZy4xAkH4kVqQtIGxrmiyQtO7D0u8JpAsftPpXDUUUdJuM3QoUNFRtGmefaE3pE6jBAy0ncmDb+oCSD7iTVmJ9dygTU6pAxlrZDpy7yIpyfEK9+1QJYazlId2VIqzj33XEmLZsIlNt98c0nLg1uX19577+3Wq1dPXFaXXHLJMtZWPmOJJYUaqX522WUX94EHHpDvJk2a5CqBJans1l57bUmBZdL33HTTTWIV4jdq0BdLiIFURJzHfKcUBUkfhOWX9xtssIF8x+85jxfcgFjOcD9eeumlMjvHpYVL0oBL8rjjjpO/C/fjdddd555xxhmuGmTc8847z11vvfXke5OyCBe5EmRyTf5O6sf8HXF069bNVQqP/lRYsMDn40YtBqW+x3KtI1IXrrrqqtIHw164pKNQCpHbsmVL/almUMz+Y6lMvv76a/EallMo0ciRIwP7sPeVNDWjZflkBf5RDcViSRW2nmWDD1I6haWUYrc7ktFjcfFaiVkEpBRh/Sk/sECryYesNGehS6EgqwopmOIWaJaSUt9jJdRRrvB3sbiIBT/etlzpFKv/WCqTxYsXy459pJ0j84TFUlOwyrGlxjNjxgxZQc1q5UK50si2ws59ueaWLQalvsdKqKNcIFsDoRejRo2qlmqwplCM/mOpTMggwa6OhNKtmPLuhBZLKbHKsWW5gNyW/fr1EwsfCfAtljQg7p4Y1F69eknKspqK7T8WPyjEt99+u/PYY485a6yxhi61WGoGVjm2LDd8/vnnYt0w+T4tlnxhgxt2sFweNhWw/cfiZdKkSbJRSU3zBFksYJVji8VisVgsFotFY4OELBaLxWKxWCwWjVWOLRaLxWKxWCwWjVWOLRaLxWKxWCwWjVWOLRaLxWKxWCwWjVWOLRaLxWKxWCwWjVWOLRaLxWKxWCwWjVWOLRaLxWKxWCwWjVWOLRaLxWKxWCwWjVWOLRaLxWKxWCwWjVWOLRaLxWKxWCwWjVWOLRaLxWKxWCwWjVWOLRaLxWKxWCwWjVWOLRaLxWKxWCwWjVWOLcsN//3vf505c+boTxZL/sybN8/54osv9Keaje0/1XnnnXf0O0s+vPvuu84///yjP1kKga3j7LHKsWW5YNq0ac6JJ57o1KpVS5dYLPmz2mqrOWeddZbz8ssv65Kaie0/VaBkdO/e3Xn11Vd1iSUfmFyecsopzl9//aVLLGlj6zh7VnAV+n3ZwC2NHTtWf8qNXXbZxdlyyy1TPRdgLZg6daq8N6y44orOMccc49SpU0eXVOePP/5wHnroIRlIea288srSSHnxnkZrKRwIhgMOOMB56qmnnN13312Xlpbnn3/e+fbbbzNtgnb6559/Spv4v//7P6dly5b6SMd57bXXnE8++UQUk9VXX12O5TiOp+116NBBH7mUzz//3HnppZfkeM69wgorOL///rtTt25dp1mzZvqoaObPn++MHj1arsc5VlppJWfx4sWZe9xjjz2cnXfeWR9dnR9//FH6HL/lxfXpA7Vr13aOP/54fVQ85V5HBqyp+++/v9RXubSvNCnH/lNKevXqJe3y0Ucf1SWVy08//eQ88cQT0gfoN4xHf//9d6afNW/e3Nliiy3kWPoH49iqq64q/cYca/rZ3nvv7ey0005yrGHUqFHS9zk/v+NYznPCCSc46667rj7KcS666CJpZ4888oguWb6YOHGiyBGeAfXkl19t27YVGRzE008/7fzwww+Z3/JMqGPk2Oabb66PSl7H5dImSo56CGXHkiVL3C5durht2rRxt99+e5R3ea2yyiruiSeeKN917dpVXrxXyqXbtGlTVw2YmWMHDhyY+rlADdhuv3793J49e7rbbbdd5ph9991XrhXEL7/84vbu3dtVjSpzvGoU7sknn1zt3Jb0oe5V53SHDh2qS8qDYcOGSRtSwiDTJho0aOCeccYZ8p0XJczc8847z91kk00yx9arV8/t1q2be/311+ujqlCKorTjNddcU45VQshVSqmcJymzZ892+/fv75566qmZa/Jq0qSJ26dPH/fVV1/VRy6LUlLd9u3by3XN9Y877jh3yJAh+ohklHsdeUEuqIHI/f7773VJzaBc+0+pGD58uFu/fn13wYIFuiSY8ePHi3xv3bq1tP2OHTtG9plSoSaJrlKa3BYtWmT6DWOTUlSknytlSh/pSttGJtBPzLFqUukeeeSRcuy0adP0kVVw7l133TVzPP23R48erlLm9BFLURNvGXcHDRqkS5Yv7r33XpFf22yzTaau1l9/fdFL0BHCdAu44YYb3EaNGmV+t+2227rdu3d3P/zwQ33EUpLWcbm0iVJTlsqxFzXDkAdDJfJgo0BgUclqpiWKrp80zwUM9t5GOXjwYP1NOAhXNQMMbDSW9EHg0FHLFYSYaT/z58/XpcHQvsyx06dP16XhoNAgYD/66CNdkhumjW+11Va6JBnt2rVzt9xyS3fGjBm6JDcqoY6AgYzJRE2i3PtPMfnuu+/c2rVru2+99ZYuWZa//vrL7dy5s7v11ltXU04mT57sbrzxxmJYKUd+/PHHTL8599xzdWkwKFlmUtmyZUtdGg6KXZ06ddxzzjlHfhvGV1995daqVSuVvlipPP7445nncN999+nSeGbNmiW/6du3b2p1XA5topSUfcwxZn3M9YAZPgpcrTfddJPTqVMnZ/bs2bq0ijTPBbg7iDc85JBD5PPFF1/sfPDBB/I+jNatWzvbb7+9hGpYCstnn33m3Hzzzc6//vUvXVJ+eN1eSkjod8GowVW/c0JdbF5ef/1155577nEaNmyoS3Jjhx12kP//97//yf9JWLRokYQg4Z7zu9WypRLqCPr06eM8/PDDjlKEdEllUwn9p5goxVbCifbaay9dsiyXXXaZ8+CDDzrPPPNMpt8AYSlK8XGuvPJKaW/lxoYbbijjI8T1MfrVBhtskHkfh1LcHDWxdq6//vrI43HV41rv0aOHLkmPX375RdYFEAIwfPhw57nnnpMFpuWGt83MnTtXv4vn2Wefddq0aeMMHjw4tTouhzZRSipiQR7xgNnQv39/5+uvv9afqpPmuQAFGWGHMk3sDLGNxNyEseqqqzqrrLKK/mQpJMRYofQcfPDBuqT8WG+99fS7pbFeUXiFSNyxLKAi/uvYY4/VJbmDEINff/019roGlITTTz/dady4sS7JnUqoI2jQoIGsPUCJqglUQv8pFhg97r//fqdnz566ZFmYTFx99dUSV7/tttvq0iqIS6c/ELOczUSzWJh+lqSP028gybEYjRgjzW+iuOCCCyT+9oUXXtAl+cHk97jjjpP1CSjHxLYiI9577z0xbBGXO3LkSInxLQdY22R0lC+//FL+j4N441tvvdW54447dEk02dRxObSJUlEjs1UwmKOAppG6JMm5mI0xAwI63aBBg+S9pXSwKGzMmDEFsUKkyfrrr6/fRQuVJUuWOEOGDNGf4gXQv//9b+fyyy/Xn/LDLEaFJAIbRQLhe+655+qS/KiEOjKceeaZsjjwo48+0iWVSaX0n2Jx1113OfXq1YucSA0bNkwMJAceeKAuWZajjjpKrJhYMMsN08/i+s2oUaOcr776St7HHYtCuskmm4i3NAlMHljERX3nAwu+2rdv7wwYMMC57rrrZHHvpZde6nTt2lUMWH379pX2/dhjjzkff/yxLDIrhzSFWGqN9yupcsxkC2MEBrokZFPH5dAmSkWNUI5ZWY9Q8oIV5/vvv9efkpPruTp37iyCD6644gpnypQp8t5SGh544AFxBWHJK2eSKn4IMgS4IepYsibss88+zqabbqpL8sNYjiFOYGOBwSIzdOjQ1NxllVBHBtzn/N133323LqlMKqX/FAPGgxEjRoh8j2rThBABSnQYKAWAYlZuJFGECJfCQmkmCVHHYlDCUHTJJZfokmQ0adJE6iebsAIvP//8s5yDF5P0bbbZRn+zLGRHQGm+4YYb5PnGhUUWAyNvkyjHZKrAGu7N3JOEpHVcLm2iFNQI5RgL0IwZM/SnpRD/RwhDtuRzLgZn3BAMKsxOaTSW0jBu3Dix6HtjUOPA2oDFL6hzE59WCFdoEsUPYc/AizvMECbUSJ9zyy23SJtNi2yU49tuu03SfRGbmRaVUEcG0tXtuuuuMmhVMtn0H+Qcqc384WeU0Z9+++03XVIdwnRQRrBSJ4HjcAXjBud3UeFrafLGG29Iu4uKNV6wYIHEUQKxmmGY+sR4koZn00u+8iuJIoQVltASUh5ClHLFBJHc2Ouss44uSQaWdyYkL774oi5JDt6jjh07yrNi44uk4RKvvPKK06hRI/H85KqUG2j3pJX0P1/aK6E33GMURt4aS2wYKMVYwJFl2ZK0jsulTZSCGqEcf/fdd/pdFfvuu28mQDwb8jkXVgEsZoCrBkXbUnzo9G+++aa4jpKCW6pdu3biZjv66KMlXpbzEM/VqlUrsS5ce+21MuOePn26/lX+JFH8Bg4cKG2JY008WtixhPdguTULKdIAJSlJHBwDMMpx2mFFlVBHXhh46P/lGFeahKT9hzpfa621ZJHzZptt5px//vlSzoI0LFksaKausaSeccYZMikBjA+nnnqqHE8cLxZ86uzTTz+V7/3wO5QWwnTIT02cIudmoWZYrmHkMMoOShJ/BxMW4qfpx4Z7771XjmEixzEskqZ/+0Fxgqj6+OabbzKK2Nprry3/B2GUAiYGTOjSIg35FacIMTayyJYYXnMsEyOUND8LFy6USQz3kS3EZtOHTb1nw5133il/IwtJiftms5Y4BRmZhSJNW8Tr651gZwMK8ZFHHinKIpZUwgbMRjG0NbwwhNOwKP+8886T8iCMcky98vzCwPrapUuXSE9FGEnruFzaRElQDafsUQJFUoQcfvjhuqSK999/31WDnKtm4rokmjTPRX7B22+/XX+qgvyWXIM0cKrx6dKlLF682G3cuLH+ZCkEU6dOlfq/6qqrdEk4anYveXPVIKtLXHfevHmuGoDdAQMGuIceemgm7c3FF18sORzJmZ0WauCXe+UVlOZp5syZkhLNYHL+ki7KDzknC5V2a9NNN5XrHnbYYbpkWcgb/uSTT+pP6VEpdWS4++675frjxo3TJZVF0v5DakylFLpnn322HH/SSSe5t956q+SVpl8ZSEnF96TGRMZ26NDBVYqh/tZ158yZI+mlSPvHOf2Qj5pr+CENH+clF7Yf2gypqB5++OFMznryzM+dO1cf4UpaQPLT812zZs0kjRb5vf0ce+yxkqaK9FNhvP7663IeXuT5DuPFF1/MHEc+2XxJU37Rt8y9KQVHl1ZBfzLpEW+88cbMsV9//bWUeVEKpjtx4kT9KXvIUa4mLfpTMmg7aqIl6fQMSlGV+vG2Ry+M36eddlq1Z8v4/cEHH+hPyaDPkMLMm/9aTf4kTSTpW7kHIJXaFltsIfUW1k7uuuuuTN2+8cYburQ67733nvyt6BO5kqSOy6lNFJuKshwrwSpB9rxUA3b2228/mfUzU8mWNM/lh5ko7jPcKqrjhboV/WA5ISVL0IvYKb431pdCgbUBlzCzZzUoiTWC2bTXYohVBheeAXcR90cKq7fffltmkqwSJvA+LvaamTE7lbGIid++9dZbch6/u4fnQhnn5fwcP2nSJP1tdcxsO2zHQi9YC4hJUwO7Llkah0YsKpaxgw46KJPmC6uE6jM5zdTDIFwHVzwEzc7JluJdNBY1k8dyyj0Xgrg4OHZPo27SyvzgpVLqyGCunyRm0A8WZyyPWGPzfVFnuSz8Stp/sLxjMcYSBoRVYBVmgZCx3gPylVhd4ph5VriBvdZV+hqx2riRkRlesDaNGjVKZI5/ARHWf/ouVmQyj3ihzRDeQHordgQjqxC7g3ljhrHiktKTRVuk9sLa7U0baKA+NtpoIzlHGNynIeo47/UJxciXNOWXabegFGz9binI3DXWWEMs7eA91t/PsO7TFkyK01zg/Nn2H54hacq82aCw0G633XbiueBv90J7ImQGV7/3mXXr1k1SMiaFMRMviMlaZSCFJXXTu3dvsdoDKf5IDUtderPweIkLY0OvwCJOhoqoGPg4ktRxObWJYlNRyjFhCwg780Io55ovOM1z+aGRIIgAgZzUTYNbGncmHfrwww+XToVyyXbVKIzkyGTLXlIFhSmG+YALiJWspKKiLkjlxDVxSXJPuKoYvIgv8rpNiLFGqUVQ43rElYlCjcsmzFVqwLWIoovbj98SwsJiKdxcXpgUjB8/XtxInP/CCy9cZiA1mBjGuLgmYr9w+5599tm6ZCmUm3MweTLgskTZSDtsICxdDsKevJfeAdsIIP+xZElBIdltt910SboYgY1g9w8yuIhpKygphaJYdUQoBHl9cU0zWUbpQKljQEqKudew/OhR4IolrjatF+7ObEnafwxmPQaT26AMJSjqKMP0dZRgQjH8mIVq/jhLFB0zMfIq3MBnZBNw7TCOOOIIkS/IYowVpv0io5GnhCREKbTUR1xdeI0F/vv04v0uyPWcDWnLL6+y5u87//nPf6qFpEQpQsiCfLPAcC+cN6lhCSZMmJBZFO+FsYtF9bjzzbMnswjjHQqt/9k3bdo0q1zlKNfIC384jcmjzKTLtGEMTrQ7xvSw2PQ45ZjJJcY80/ZzJUkdF7NNEO7D+N6iRQsJtSJ23ISllATVWMqeqFAI3AqbbbZZKmEV2Z4rLKzCgLuGa/F69tlnpSxJWIVxF6oGpUuq+Pvvv2UraiVk3WuuuUaX5gcuJ3bAUQORbMsb5oLCbcIx3JvXPWngd8aFqQSDLk2GUobldw0bNtQlweAKZYvNKK6++mo5l1KedUkwP/zwQ+AuRLh++T3bcBYDJeTkek2aNNElS58zLlEluHTJUtRAH1hPSjgXdOtiXLJclxducC+9evVylcDWnwpDMeqI547rna2lOTduRLZ1xaWuJm7LXCcMdkbj+saVWmkk7T8GNaGX45USHBp6wG5YHPP000/rkuqwuyDfE5Lhh/AD3LFBcgm5xe/UZFyXBMNvkfkcS7gI7mrCa5K4pddYY41q7S4Itg/n3LyShlXku0tq2vKLkChzb95nrxRqkf1e2CXQHDty5Ehd6spzYpe2fDGhidmMI4R8eUMq/DBeststYQtq0hAZJnPggQfqd/Hcdtttss26H7Zb5m8YMWKELkkGsmellVaS39IvvBDGxHbuv/76qy7JnSR1XKw2oSYpbqdOnTJ9h3G+T58+ci520SsFFWU5DgK3Aom80yDNcwHpYYwLixlR0gUYZve+IGsGi1Fw0WBpwSKdxuIw3Iqqoct5uc8wywcWYxbShMHvjBUJa1E2mL85budCLDi4cqMws1YzWw8DVylZRfyY2SoLO4pBkKVTTbpk5ozbyos51rsimEVJuE+zycyRLWG5jrHwY7XDxV1IilFHuFNZSINVhn5GW+T8WNrwjODJSYJxrRY6BKpQJO0/fpB1URZYYHFnFFg9/Wy99dbijuU7rOGECyCn6Lt4DgDXdhTIJhYK4mHAikX+ZqVYxrqlCefCwhtXF16rIZ60MLx/X9K8tGGkLb+CLH9YxKkn3PhevMeafsbfxg5thM7kSy59iGO9IRV+yE7DGKwmR4EWYy+EDCklVX+KhsWiQe0Djyhku4kOssekmPRbjmm31LGasOuS3ElSx8VoE2T3IBQVeY6FHxjn1WRGPF9YyrMJc0mLileOAddYGo0F0jwXAhOXC4KZBONpbYpApzZu5LhULHGQEonGS1yWmqHp0nAKkf4qbYyCnqvb0oRrFGtnMCNUjPAh1zZx5rjg/Jhjif9Sk1sZvHHTpdW2wghy9SH4EJAItjilKF8KXUe4QFHygybHbdu2lf+Jq06CcVN6XZKVRK79J0kbyKWdoGwycWdSjBsXWcVOdIRxHXbYYfqoeGgXhMjQbnnetI04jLIVVxdeRdcbYuHH+53fDZ8Wucov02/A9DPqmUkhCpuXoGMJVSBEMShsJlty6UO0W+/kww8xxii9nTp1ElkQ9fxpc1GKdhyk1CO0hXhwo+hmQ9AaD1JV8jcGhY7kQpI6LkabIPyS+OWgLBbZyt40qRHKMTFFxOqlQZrnAuJnjFUNYW4SxefDP//8I50PpRsrVxh0fvIqYl1hdhYEszIECotmkgxcO+64o8zuwqzL5YCZxeey4IU6K7VyTCwX22sG1bE5lmfG38eOcExqjEJTKLzKsYkLxdtAfB4TykJT6DpCePM3Er/sB8WH62ANibIKGky7w7KXC/TZDz/8MO8XqaXiLKpB5NN/0oYBHAsoXjIWVWEVZX2IdyDOBixe5FlFHjJoRylTgGUZL1hcXWCsMMqCWdAYhPmORXOFmDzlI7+8dUo/w6DDAtGgCQiKvbG6cyz1w9hGTHcacD4U2WwUbTwXYWtcUNJYp8Pzx3PA80ImBCnItIm4dhEHi8whV++jkbcsYuNe2FXReHjTIkkdF6NN4BlCxgbpXWYCyWS22NQI5bjcYaZVv359eZ+v+5nOTOJvBg3cDmGJ6ck4gdIyatQocSWhSHCs303D6lnIZiEXv0G4lyvGqh43oAWBJZ1FWXTYoPCNsLyq+WAEEO4tFmDybPfcc08p8+MVVtwrM+5cFl1lC3VhBn/aEEKb3J3F2umo0HWEQsiCLRZ9+mHxDP2OPuK3lgRhwqdyUY5RahkkWOme74ssBbm4I/PpP2nD4kjc01j0vYt/DH7lhryrrIwPAlc6i6BYmMZCNbxuKBxxUB9xdYECbSaJUcqxGeTD5Ha+5CO/UNbNZBPlhrphsWIQHGeUe44l1AXXeVoeJPpQtv2HhZdmPPOC9xZl1RtGwxgapiCTwSIqp3USjEeXUC4/yJOwNmowyjGTcSZyJhQoSQampCSp42K0Ceqa/sUiez9mYX6+zyMXrHKcB3Qqf8cKgjANFAkaiTcOMg7iHJkp8kLBJkUSgx7nQEEwSff9IABJOE52CRonSeAREMxiDz300Iz1Cwu0sShnI4iIPzUdphwxgoXE/FHgdn/yyScl24KBPfiBTQn88F3Y6llm9wiEXPBakMw++WF4FT9cg9mkJcvnHhlUTPw8yjEr5JmcZRNbXgl1FAQuffpu0iwlZqv5XGLA8cxg7SUUJN8X5yFmOluS9p9iQBgEoMwGyRy/ksFEKEhBopyJD1l0gFAgvASElI0dO1bKwqA+ULqRl1GYlHZmp7wgZs6cKf8jk4NAtsddx5Cm/AL6uAkPIWSJja8IYQnD9DPGIkIIgq6ZK/ShbPsPGZ5I2+e1+jLukWYUr61RjA0oyMTA+xVk2kZQuFYYpBf1ZldifDWW46A6wTsdZxH3rvHgbyL1bNqbZySp41K2CQwgPAvOGabrFJKKUI5Nw02iiMaR5rl4+El3wSKFEZ0iG9jhhxQxvIgzIoSC+zYCNggEJXGgWCb8Lh2EAIKbrWGBAd/EVeXifi1XsODgQmeGHgXClLR4XleVyQuL5cUL9U6qMixZfrAGIcywSo0YMUKXJserzPGsTVqrILxKIulumCwlId97BKM0McAiMLOJ96yEOgqCOEXi3VDSmjdvrkujMQNlrqmWGJBYDJjvK9eYyaT9x2CUuSiZGndMkEJImQmFCVoHghfBLEg256XMfywhaCg75IU1ViyOwYLM5I5FbVEKLSn9iDkmTCUKFgmi9Dz++OO6pDoobXj0sFgGKceECmEZZPv1qLhlQ1ryy4vpZyhOcTu8mn5GysI001uynoAJeLZpKXmm1KvJh42ngAlBkGJsoD6QS0ZBpu/S7pL2XdLHsdscISxmYRuTM/4Grmm8MAaUZv6uOGOUkbVAu0BJTNMglU0dl6pNMBlgUSR1Fpb2rqCoBlHWkJZGCTQkn6samuwwkytpnYtUK0888YTsfqMauasGz0QpgRYtWuTusMMOsancSKfGPaqGqEuqUMq4q2ZvrprxVdtlyqAakvxWKdPumDFjlnmpQdO9/PLL9dGuu8suu8jxavDXJcty5plnSoorUiEdc8wx8iKF1oABA/QRVXBvnC/o3gzs7vPhhx/qT0v54IMP5HdJdg9USr9+F46aSLhqgNCfloX743pq8JU6g/vuu0928eJvYLc3L6SVCasj0tZwLl5qVq1LkzN+/Hj5rRKIgbsQeVHCW45lF7i5Aen0wsj3HoE0SObapJHKhkqoIz/PPfecnCPbXf/Yda1YaQALRVz/8UI6S+pbTZhEPvkh/dTKK68sx3hTPBnUxDyzUx1tTCkn+htX0jhRjuzxlvOenfEefPBBSWtJmj648MILMzt2zZs3z7355pvlGdKnlUIg5QalgLpKsZHzb7/99u7HH3+sv6kO7YBjlJKlS8IhbRfHcl9+SCXGd2Hp7Eg9yPe8SJUVRZryy8uee+4p573zzjt1STiMAxwbNA7kA2lPOW+2KdBAKagyVjF2tm7dWsbqJFx99dVut27d3IMOOsj99ttvdWk8pFXlXlu0aCGf1SRKzkHbpHzGjBlSDp9++qmMywsXLtQl4dBn+D2v/v3769L0yKaOS9Em1IRAdsykzkpFWSrHKJp169aVl5oxiAKKMsj/fKa8Xr167qWXXqp/EU6a5wIUSzVDdddaay0RQrx4T9m1116rjwpnypQpkVvwQpRyDB06dJDvEYZ+7tZb1zLIvPrqq4Evr2JDI+R4toGMYsmSJZJvlJyfHI+CGwT1wfdRyjF1PWnSJP1pKd999538jslDFOSTJI9tHObvYoAMg4GXczFoIOS6d+8u7YV7Y/LEfTLwI9Aee+wx/atlWbBggQjH+vXrywDHYJ8NJk/s6NGjdUk4TOg49kZfjsk48r1HGDRokFybPKHZUgl15OWZZ54RJR5FOxv4u1ZfffXALY0riST955JLLhEDAUoxsnS99daT98hWFE2eGeXIR74zspKyIUOGyDnIWb722mtL/nnKzXuUYUDuMNByHZQO+uNNN90kyp/Znpt7RUGmXRmZyYQemcw1uXatWrVEWfLCZ54V1zTX5jrIXy+//fabW7t27cTP9LbbbpPz0P5++uknySN72WWXyX1EyRHk+WabbSZbWYfJfi9pyS8v1DsGCuo9DvL4b7rppqnk3PUycOBAmUxlOwE38Lsdd9xRckon5Z133nEbNGjgvv3227okGSi//I6Jj6lrcmijlDNOM8kkhy9bJ7dq1SqRYgzUPxMf+geTuLTJpo6L3SbozxjAgibaxaTsLcfLI3HKMYKf74MSa9PJ+Q4LQhJoxFi5GJCSWNlMMv+wY5MoxzT8L774Qn+qAoHOfXgtRH5eeeWVwM1R/MyePVu8BHGzXYQVSco53gsDItfiu6AE72EgHJIIES9YtBAISWDw47kntYgEkcs9ApsWYMWIej5JKPc6mjBhgrRR/8CBMsK5o+C3tP+wyWOlkLT/FAueJYYFvHRsNoCF0AtK/I8//qg/pQ/GBowocc/fwGSfDU34HZvB3HrrraIoJ4GNEOI2NTGkLb+wjk+dOlV/igaPSjYKaFL22msv9/jjj9efcgN5ceyxx4rFPKpdUE/nn3++26hRI3fmzJm6NHs++ugjqW+/V2vWrFkiE8K8ElEg77JV1pOSTR0Xs02w2dTpp59eTXYzVpx99tn6U/GwynEZEqcc4zrk+5YtW+qSpeEWCAQsV1hQmL0FKQeElvhdmyjUq6yyilhS4hQfLD/5KMd0MgZd/+AGKL38FjdmGO3atUssMJjx7rbbbvpTcWAwLHdKfY/lXEdYI9u2bbuMtYa+dMABB+hP4bDrGm7ImkAp+k+5YjwXY8eO1SWFgxCiJB6SmgiynXqmDtKA/owlnt3qsORTrzxDrLwdO3YUyy4Tl1wn0pVI2nWcFniIBg8erD9VgVEGg2CxsdkqyhCzoj9sZb9SfuV/VmAbWITAilYW4bC6VSmnEjyvnrE+YmkQPpt4sIDACwtOlNCQ/eSVEJE8q0EopToyLQsLEszKaVbL+yHfMimZNtpoo8Ccs2qmLAsXO3fuvEw6JKW0S8aOunXrhqbw8kOWAtWxZOVsMSDzBwuhyplS32M51xELVcmBS/snf/O+++4rLxa3skKbdhsFi7pYjMMOXDWBYvefcoZUUmQAYgfFQqOUlsQyrqZBhiXSn6lJpi7Jj6OOOkp2VRw6dKiktkP+0E/ZgY3UYaQJJL1qkhSNNYW06zgNSFXHjsJjxozJyF1e6CbsFRGUf77gLNWRLeUALsyDDz5YYqKJTyNu7cADD1wmHhrXHq46YoZwvRBPhovE66om7vK4446T32NpxnV00kknifsnDOJCiVsjvg4rMrO4hx9+WOIDiW3jO1yDuJy9lmF+x3WIJ6VJ8SJ2mON4qYHF3WSTTTLfRVnWWNCAa4XwDeK0iMMjPop6IdYwW5c+iyz8i1MKRa9evfJyzRWDUt9judYRC2CI8TNtNOgVtzBGDbLVvDk1gWL2n3LHrLnAklUoaIe4lZdHvv76a4kNr/SQpHKmHOvYu1g77PX888/ro4vHCvyjLm6pQEiXwsyXXW5Iq0UqGz9KkZbNDbC4mp2v4iBtEYnQ2Q3nr7/+khk3lhOlsOsjCg87As2YMUN2PCItEal11spityQDuUBJjTRgwACxSBcKcmmS1ue6667TJeVHqe+xEuooV/i7unTpIt6coM0XKpVi9Z9Kgd0W8dJhTQ+St/mArCblHJ4Hfyq2mg5/e5MmTSQl2uWXX65LLWli6zg7rHJsqfGgZJOjlnyJhXLPsJkAicrz2Y+/0JT6HiuhjnKBSSShF6NGjZKwoJpGMfpPJcHGKoSXDR8+XJekA2FtKDCE9CxvsCEHu0OyIUtU6J4ld2wdZ4dVji3LBQw8/fr1Ewuf2fHHYskX4uyJa2TXPjYnqanY/lMF3jQ2DmG3UWtNzx+Utdtvv102ZVljjTV0qSVNbB1nj1WOLcsNbDXLjNm7+5DFkg8sHGWnzEaNGumSmovtP1WwQBhLOguMLfkxadIk2f21pnmUyglbx9ljlWOLxWKxWCwWi0VjA08sFovFYrFYLBaNVY4tFovFYrFYLBaNVY4tFovFYrFYLBaNVY4tFovFYrFYLBaNVY4tFovFYrFYLBaNVY4tFovFYrFYLBaNVY4tFovFYrFYLBaNVY4tFovFYrFYLBaNVY4tFovFYrFYLBaNVY4tFovFYrFYLBaNVY4tFovFYrFYLBaNVY4tFovFYrFYLBaNVY4tFovFYrFYLBaNVY4tyw3//e9/nTlz5uhPFkv+zJs3z/niiy/0p5qN7T+l55133tHvag7LUx8qJe+++67zzz//6E+WOKxybFkumDZtmnPiiSc6tWrV0iUWS/6sttpqzllnneW8/PLLuqRmkm//+fPPP/W7YFzX1e8sQaDUdO/e3Xn11Vd1Sc1heelDpYYJyCmnnOL89ddfusQSxQpKKJVMKn388cfOp59+qj9lD53q8MMPl/f8GWPHjpX3ubLLLrs4W265pZzrzjvv1KVVbL755s4RRxyhPy0Lguvzzz93Vl11Vbk3zsOgwGvfffd1tt9+e32kpZggFA444ADnqaeecnbffXddWlqef/5559tvv5V24m0rCK7/+7//c1q2bKmPdJzXXnvN+eSTT0QxWX311eVYjuP4FVdc0enQoYM+cim0wZdeekmO59wrrLCC8/vvvzt169Z1mjVrpo+KZv78+c7o0aPlepxjpZVWchYvXpy5xz322MPZeeed9dHV+fHHH6Uv8lteXP+PP/5wateu7Rx//PH6qHjKvY4MWFP3339/qa9yaV9pkkv/QbY/9NBDzrhx45wvv/xSnj3PZKuttnK6dOninHrqqSInoW/fvs5OO+3ktG/fXj5DvmMD7LnnnvI8gWvfd999zhprrOGsvPLK0iZ45uY72jbtZZtttnH22msvKQ/DnGvNNdfMnMuUo8RyHq5z7LHHSrmB9vzdd99Je+Nv53jaJ6+48aFXr17SFx599FFdkh7l0M9qeh9KwsSJE6UeqFfTPrx127ZtW5HDQTz99NPODz/8kPnt33//LfVMHaO3GC666CLpz4888oguCeann35ynnjiCXlmnJN2zjlNu2jevLmzxRZbyLFch77OdXnO5lhz73vvvbf0by+jRo2SMcH0BY7lPCeccIKz7rrr6qNKjHoAJUNVvtuxY0f3yCOPdNUDQEmXV8OGDd3TTjvN7dq1a+bFcariXCVAMsetssoq7pIlS+Rc/K+ErtumTZtljjnxxBPlO3Mu3qsZlNu0aVNXdf7MsQMHDsycq3///m6fPn3cdu3aZb7nNWHCBDkmCNWx3c6dO7ubbLJJ5vgddtjBVTN+95133tFHWYrJL7/84qqO6Q4dOlSXlAfDhg1ze/bs6SpBkGkrDRo0cM844wz5zosSZO55551XrV3Vq1fP7datm3v99dfro6pQA5i0bzV4y7FKALlKKZXzJGX27NnSB5QSk7kmryZNmki/UBNBfeSyqMHTVYqOXNdc/7jjjnOHDBmij0hGudeRF6VguGoQcr///ntdUjPItv+oiZHIVzWYu2pQdEeOHOkuXLhQvlMDoDtlyhT3nHPOcXfbbTf3s88+cydPnizH+p9nNmMDMrdVq1auUjCrHXvbbbfps1XJdKVkukrRzxzDq0WLFtLO+vXr5yolQ/8inLBzKcVPxprzzz/fvfXWW/XRVSiF2lXKo7veeutlfrPjjjvGjg/Dhw9369ev7y5YsECXpEu59LOa2oeScu+990rdqglapm7XX399aePoJkbXCeKGG25wGzVqlPndtttuK+3qww8/1EcsRU0CRe8ZNGiQLglGTWpcpUhL3zDnVEqs6GDIf6Vg6yNdeV70B56rOZa+QN/l2GnTpukjq+Dcu+66a+Z42luPHj1cpeDrI0pPSZVjLwMGDMhU1KRJk3RpMC+88II8fI795ptvdGkVakYiD5LvaQhRIHB4KAhohHoQm222mXRazqdmvO68efP0N8FwTgaU1q1bS2O0lA6EDZ20XEGAmXY/f/58XRrM4MGDM8dOnz5dl4aDQoNw/eijj3RJbhihu9VWW+mSZDCx3HLLLd0ZM2boktyohDoCBjEmEzWJbPoPz5nnzcB47bXXuv/884/+ZlkwMmDE4HielV8J85LN2PDdd9+5bdu2lWP79u2rS6vz999/Z5ToffbZR5fmhvdcKMpJ+N///uduuummicYH/p7atWu7b731li4pHOXQz2piH8qWxx9/PFO3TKiSMmvWLPkN7T6qXX311VdurVq1Esk8JrvmXs4991xdGgzXNJOgli1b6tJwUPbr1Kkjk+Vy1JPKJuZYzab1u6XhElHgKnj22WfFfD979mxdWoUSVmLeh7hz4Ta66aabnE6dOgWeC3AJ4kbDJYRbTD1M/U0wnFMNKM5JJ50U6gaxFJ7PPvvMufnmm51//etfuqT88Lq8lIDQ74LZeOON9TsnUbt6/fXXnXvuucdp2LChLsmNHXbYQf5Xg7r8n4RFixbJ4iFcc36XWrZUQh1Bnz59nIcfftiZPHmyLqlssuk/uM8PPvhgRw28zvXXX++cf/75mbCFIAhPU0qvHB9HNmPDJpts4owYMULC7cLkOeMGYwSss8468n+ueM/FOJGEDTbYQMYwYrjj2mi/fv0khCku1CMNyqGfFboPKYVQwoPUZMx57LHHnLfffttRSpr+tjww8hbmzp2r38WDTtSmTRtHTVwinwnhEIQv9OjRQ5eEs+GGG2bad1yb4Jq0bfM+DqXMS5gV8iLJ8cWmbJTjKEEaBJXarl27UOGa7fn69+/vfP311/rTsjRp0sTp2bOnvCe+ho4VBXE0q6yyiv5kKQXEVyGMGbTLFe/AT5xXFF4BEncsC6gYuP1xj7lAX4Nff/019rqGyy67zDn99NOdxo0b65LcqYQ6ggYNGjjHHHOMKDQ1gaT9h4nQcccdJ1kHOPbcc8/V30RDDCX1FUe2shwuueSSRIp3qWB84BXFBx984Nx///2ZcafQlEM/K0QfQm4NHDhQYpqHDBkiShkx4Uz2UcQZ21kQSNx1OcC6J9PmiddPAvHGt956q3PHHXfokmguuOACiXF+4YUXdEk4pl0kkf08Z0hy7MUXXywTJvObcqOis1W0aNEiNQGIAoAyG5Xq5Morr3S22247eU9nYuGRpTzh2YwZMybR7LiUrL/++vpdtEDBuoFgN8QJn3//+9/O5Zdfrj/lB8LakERYM6gjeJMqSXFUQh0ZzjzzTFm0hIWqksmm/9xyyy3Ohx9+KO+vvvpq+T8pDNKFgEVAKOuVzF133eXUq1cvtclbHOXSz9LsQyh/u+22m3gIsEZjMe7du7dMzBjDsVpS3qpVK1lMiKek1GCpNZb5pMoxCzYxSOC1TgJGC/oIbSwO0y7invOoUaMy+ljcsWQmwctTzkkKKkY5dl13GWW0UaNGoa6zOFiNzwpJL8xav//+e/1pWQjVILyCWTPuDixjlvLkgQceEDdQEstUKUk6ICHEWCFsiDqWFd/77LOPs+mmm+qS/DCWY4gT1vRTBp2hQ4em5iqrhDoykNWBv/vuu+/WJZVJ0v6D1RijAaDIZev+J0tD0gE9Cv8gj+UNlzD3V4kwNhEectRRR6XWj+Iol36WVh+69957RSlnos4kj4wPYTRt2tR57rnnJJQoLmyyGBiZm0Q5JlMFmR68WUWSgMWcCXBc6EYS5Zh+htXaTOSijsUAOWjQIPHulDMVoxzzALt06aI/LYVZR7YNwsBsdsaMGfrTUoh3inN10dFNDN6TTz4pbi9L+UEKKWKrvLFxcZBaBmtFUMdmA4RsYm6TkmRA+vnnnyV212tlCxNopM7BkkdbTotslOPbbrtNUjERJ5kWlVBHBuJOd911VxmwKpmk/efFF1/MWGhZZ5EtuFQPOeQQ/Sl3cCn7+c9//lN28aRJeeONN6StZzvZIDSAVGt+DyiptVD8ouqjXPpZGn0IyyTjM38v95wE2jEhICh61113nS7NjXyeAxiZG+cZRykmFSL1nC0HHnigTMLow1EkUY6pL8J/TOrEKIWbSQ/x9vnG+xeailGOWQjnhzAIk+c4W4LOhxXDBJRHcemll4rVGmgQdteo8oIO/+abb4rbKCm4pIhhJ5b86KOPFq8A5yGWC5cbz/zaa6+V2fb06dP1r/InyYBEvByTOY41sWhhx+ImxHJrFlGkAUpSkhg4JhAox1gF0qQS6sgLgw55egsxmSoG2fQfrwKTq4uU9R75KMh4D4OeNYveyEVcibzyyivyf1IZhiLG5AQlBQsez8JsGIIFFQ8Aa2Vat27tnHfeeVLup5z6WT59CKWce+TvHjVqlGyeEiezuQ4K2w033CCWccIxUGKzJY3nAEY5RvllDAoD6ytGQ7w22UIMNs/QtLUwTLsIe87oUiy+Zt2BOZYJBvfuZ+HChc7IkSMrwuteEcox7j1vjFO+0FGeeeYZ/Sl7sC5jMUY5X7BggdO5c2f9jaUcIP6RzpkkmTxhAMS4sUL48ccfl0UCEyZMcIYPHy5KHnFoWKAQdAh5BIlxI6dB3IDERgiEEzFY4Go0s+2gYxGixM+dfPLJuiQdaO/GIhClHOO6xI2ZdNV+UiqhjryY7ByshK9Esuk/3vaw0UYb6XfZgZfB652IAsWHF/fHsyQ2lUkt/bgmMWXKFFHsCfWL47333pMJxiOPPCLjJEop7m023EEhY6LDeHfaaafJefl+5syZ+tdVlFM/y6cPMUEn+9Taa6/t1KlTJ6Mgv//++/qI6mDlJLMU9UJ8MgrjVVddlbXbP63nAEnWeWDlRvHONQyE57fZZps5b731li4JxrQLFjbS9/yQdYZJE8S1IcZUFvoWK1QoH8pSOaZRslsSQo+UP/Xr1885fIEOwbl40VH3228/EcYI13wgoN10HnYYuv322+V9LmCpwQKDq4rtHfm7r7jiimqdghhO3P5eGMTYLz3pi84bB9e88cYbnW7duslM+uyzzxY3mnED4S6i83tBELILEgMVwowXnZYyUjxFwUwbFxhuRGaf/D9p0qRl7pXZKcchYDg/gjdM2HE/gGCMg3bFrlgIRwM79BAjR4c/6KCDMumH2DWRQTiXWXoYKJ5GmQwSJghb72IWI3yCjsVaYoRU2sTFwJEeibopxOKhSqkjg7l+WF1FgbWMQZ31Dfm+qDOsVNmSTf/xrtFI4nXLF1JQoTjwwqNBfKqxzNUkeAZMNqLiZIGxg7R5rPr3xm6jXNL+WXyGxwtQzLCyk6nBm5nCUE79LJ8+RDiFd6c+Fn6xs2CQgsy9I/ux9Hong+z+yTNAIUxCms8B4kLZCNfg7yGcKB9Fk3qOq2PzLMC/yJUxm7/DeNK9x/rbBboAGcHSCKMqBmWpHJOFgnx9vHA/oKTF5bcMg45hzmXOxzbRaXDhhRfKFqVAXBXbMmYLgh1Fm9Q13BezKiyTxFzhdmH1LEoh4Rt+NwUKCbFGDBAo/CiyLKR58MEH5YX1EyW7Y8eO8j2dP2xSwLlRzmnkxDmxmhcluWvXrpL6htkvfx/nQgn2QkwXZYQe4AbkxaBMbsuoBY7wzTffyN/HbJr4OgY/Jht+lxZur1GjRskCFcJfyE1tVsj7MQs342KaUPiZvVNvXig35/BuaUvIBX9X2mEDYalyWCCCRdubfzRsQGIygcUDy0chMMIaoe630jGA0G55JoWiWHVEO2NNAaE19BkGTvpUVBYbP+Zec1ksjBsWl25aL1yd2ZK0/wADoyFfg0MS8OoQvoNc4XoMtsiMmgbPIEn9E79JW2VC5YU6AtbkGIUXwwsT/KlTp8pixSDKRRbl2odoF0zS/GlU0QOQ34R5YHEFFD10i2uuuUb6up/DDjssNh7XkPZziFOOGfcx9KEn5AP1zPP77bffdMmymGcB/meNV5Vx3xClHDNGeCdXQeDVJ0wEHZD1XegbJZv8qoGuLGD7Q26H15tvvqlLq7j99ttd1fj0p3iUYJFzHX744bqkisWLF8uud2xlmgQ1YOl3y/Lxxx9ndkg68MADM1s8qpmzO2bMGHkfhBpsZccZ1Ylldyg+B6EUVDmG88+dO1eXVocdrPhedX5dsiwjRoyQnauCdsVRnVR2P9t///0DdxwEpTTIVqdchx1tgnj33Xfle7aCzBY1c5ffKuGlS4J58skn3U6dOulPwVx99dVyLqV065Jgfvjhh8AdiN5//335PbswFgOzjSZbMxvYeevQQw91ldDSJUs54ogj5NiGDRvqkqXQN9TAoD+lz8UXXyzX5TVnzhxduhS20VXCWn8qDMWoI5578+bNZctbzq2UL9nSlV2f1IRvmeuEoSZtcn22361EkvYfYNtmjuV111136dJw1EAvz0ANnLILGy/k2rfffitb0iqFRR9ZRdzYwPm22GIL/SkZUeNDtuRyLnaCixof1KSjWlsPgy2y2eLbD9v8ck/I/WwoF1mUax96/fXXZewNg3amlC7ZZZe/MWrnwdGjRwduiR1E2s+BOl9ppZXkt7QVL4zRO+20k/vrr7/qktw5+eST5RpKidcly8KYyzG8vDLhoYceEv3EC/VpjmXreMPEiRNDd6w03HPPPTK2f/LJJ/IZ2dCnTx85V5jOUUgqZkEes7i0wA3BYo00wNKDdRZw9WOJTAJxOlhmcbUwU2KmHQQW41NPPVV/CsZYb6KSaWMJZmGZ37pNmAShK1hLCe0gBikIZuO4pnDXhmGs+1HHhGF+G+chYPV83Ap6M2M1M/UwcFt63W8GM1NVwlP+LzRBFhjCdJg1ey1zYI71rgbmuRD+kU1mjmwJi4EjXIcwFywyhaQYdUQoEbHlWGToS7RFzo+ngLg8XKNJMG7VoPi8SiBp/wGvdVApRPpdOISMsSgJjxvhS7yQLYRIYAHOZS0Iz9Rr3fLCSv40wGJNuFcxwCKOJy9J/bNeIug4493LdgOkcpFFufYh7iWsLQBrJ7DaYpk03sowGB+SLghM+zkgf0z6O7/lmLUd7IKXxmLTJPVsnjOYdkGIJ2ltCe3w4j3WtAt0C+6XsJww0EOIFaetmTh7PCdY9fF+YSlnw5ZiUjHKMQ0+yeKEpBBTlNZKZjY7QCAAsVZxycvZJIHGwoYiSYLpc005hZAlbMGA28evHBMnRWwV7o611lpLlwZD7C1hDeUOsXMQtFo2CYR5QLF21vMPSOTgZitQ3G9+zLG4BNXkVp4xwj6tDTfCCHLzIfQQjgi1uNjIfCl0HeH+RMkPmjQzsQTCmJJgXJRRg3Q5k03/8eZBTuL+5BjqmfhD1lEYyBaDuzvoeSaB3/vhuftDwHIFxTgstMZkY/j777/l/yTQjsNiRU1IQK7yi/GHsAzWUmSbx7tcZFGufYjjWSQfBn8XYy4hFkyEGYvD4G/PJ44+n+cARuZ6lWPW/9A/0xqHk9Szec5g2gWb/WAs8Bvkgo5l4xVCWqP0Cxa6E78clMUiW/mbFhWjHDPDMQHtaUA8L1bfNEAxIL6XmSMCgll2lKBkFoRiwQLBJErFjjvuKBODMOtyGORx9mb5YJWxyToAKATM9LGQEVOcBGK0sr2PYmNm8FFCMgyEfKmVY+K4yJoRVM/mWNoPfx/PF2FvFJpC4VWOTe5NPB8kz2eiWWgKXUcIbv5G4ir9IHu4DpYQMufEYdpdrtkbiLcnnj7fF4tdWSiULdn0H+qLlFDAAtykC5jA7DYKYbGXSWHi74fYV+818oG6DPOqmXLTNpOAbA5b2IvSjPctF/kFPAfIxfNVLrIo1z6EB4JFrUGgxBP7SyYK/h81apQoY2EKMtk5OF+u5PMcwMhc4uqp419++SXjcU4L6pnJXZTiap4z0C5IXUsdB3nzibk2kz6O5fwo9Fjpo9h6661FzgbpZCaO28RvF4uKUY7LHR6uUd5J0xK1u49xHWazYIHf4ILMBhRfL3R0lFsDFgGsIQwgQS6hIFDoC7F5QpqYRSO5DC4ISlxpPM+gwdBfp2lghA+uLdoOs3mz0NOPV1Bxrya/ZKGhLoyVAEsGApv0RMXa5ajQdUT7x6syfvx4XVIFC2eYNNFfo0KXDGbTgVyUY5RaBghWuef7wtOTiysy2/5jUhuiiGMlSopX4QpSvvIF+RY02ckWcrOyuDHM+mdW39MvUGLioO1SV1ELw3kGucgvMIvIjDfTC205KoNQuciiXPsQcgpPqH8Si2JM2A4eWxZ6Acciz88444xABZmF4fmEX+bzHMAox/wthB2woI2QiiRZZJJCPcfVMVZl0z9ReFHQgzw1wHHGCs2xZCwhnCLOCMgifto7SQ78ELoHSXN+p4VVjhPAwJgEOtmhhx4q771xWF5QRmnokE3HJ+YzbgAhpANLHtkrOJ54nShMyEU298Gs0LtiuRwxQsUbUhIEApO0P15rFwIRsLL74bsw1zGDorG2ZIvXpWX2yA/DOyDhvswmXVI+98hzN5YulAAyfNC+sokvr4Q6CoJJL8I9aZYSE3ubS9wlXiIUJzxQ+b44D16sbEnafwz0FcKzAEujyXYRR9Kdy3KBPo2HLg3lmNSVWNf8MbcG4u2ZXDG4k6EnDjIQxXnqeAakrwwL5TBwPaM8AIqUsVgGyTA8plFWwlL2My/59CHGYO+k0KsYk+nICxOeUaNGLaMg4yngefuzT4SR9nMA7zoP2iBp6NLePIN6jqtjZL+JTWbCSahJlEfGtAsmV8iCoL8/KUzOCNvjnEbGFIuyUY69CmhSZTQKc458z0XcF+b8pAsDsBhHpeBhkDUxZbm4PKNg8KZDEhbArDVuO1ez+C3t+yg1uPlx7TE7j4LdFRmkvG4qkxcWy7EX2hGpyszW4V5oHwgyXMMjRozQpcnxDjK4h0k7FIZ38MICgoUwCfneIxiliQkCwjKbRbKVUEdBsFsWsW6kc2vevLkujcYMkrmmWWIwom/m+/Kns0pK0v7jBVc1fQmFF7mTRPE1ykMcuYwNhAIwEQtTjpOOD7jWsdgFeZEMtGuzEDtuAoV3grjcqMVJQGoxxh6UtDBYJEhIC+FfZnzCw0isbJARg/rG+xFlDClVP/OTTx9iETvxxEyQjGKMd8OvGBuCFGSeDxO9JBTiOYCRt8C9oCSm6WHh/jB0JPFgm3aBMo0RLgrTLkjDl2/aUyYDhKhSZ/mGXmWNEg4lZ9GiRe6pp56KlJKXqlBXNTL9bfaQkkkpoXIu1TDdr776Sn+THaSsatOmjZynY8eOkelOvNx///3ym7BUPbvssot8rwZcXbIsZ555pqSVIj3QMcccIy/S6QwYMEAfUcVJJ50UeL1XXnlF0mx5ef755yWFGTzxxBPyu/r168vnIN544w23WbNmcu2jjjrKPfbYYyV1HPc2a9YsfdRSlGCR8zVu3FiXBMN11YxQf1oKqcD4rf9+/ZDK6cILL9Sfwtlvv/1cpeDqT8uiBm+5nlICXNXxpIy0bj169HDVzNg98cQTpcxASpmw50XKGs7FS82odWlyxo8fL79VwlD6QhRq0JBj11133dDUfkHke4/QpUuXzLVNG0pKJdSRn+eee07OQSqjbFCDcNHSABaKuP4TxJIlS9zevXtLykjSOSJ/wrj11lslbZhSQuRZkc4yCP/Y8Oijj+pvloU+/fTTT2dSjK2xxhqBKTK94wOymLRZXhYvXux+9tln7uWXX+6utdZachwyLw7SjnHs+eefHzh+TZo0yd1mm21EBsdB2+NcjCVhUNcc06JFC/mslGn3oIMOcpVyKOUzZsyQclBKvsjvhQsX6pJgStHPgsi3D40dO1bGbupDTeZ1aTSkeSOdKc/vkksu0aXxFOI5ACnb+D0v+knaPPvss3LuJGnm9txzTzlWTex0STjoKhwbpKtkg5oQuGriKXVWCkqqHKvZnOQbVjMoeW288cbyMu/r1avn1q1bN1E+PwQax/JSM4zMOfifz5RzvksvvVT/IhzOtfbaa7u1atWSHJacg//5rGZQ+qhoyB/44osv6k/V4aHTeDp37qxLgmGw+fzzz0XIc/x7772nv6lOmHKMwEIge6Hhmo6Jglq7dm35rZrlSVkYHHvuuefKsS1btpQ68pNUOUax9v+enIn8tnv37rokGIT34MGD9adwTB3PC8ibajjnnHNkIEXpRcBxbe6LOmNSRVshvzbCLCqH9IIFC0QwMskg5+dff/2lv0kGCj/3Sl7NOJjocaw/v2Qc+d4jMGnl2kny2fqphDry8swzz4gSjwKQDfxd5D1nYKxkkvSfMMh1Sg5ZlGRyyl5xxRUywXjqqafca665xj3ggANEhqCMwAUXXFAtJyrwG2TuSjrXq3lxTsqZwJoXMnm11Vardhyv3XffXZ9tqUznOCNLvS+eF99xrvXWWy+jOHtfp59+uj5TNOPGjXM33XRTUS6vvfZa+bvJlYuMRi4mbU9GNke1I5QuJiHUqZFTGDNQ9jt06CATHHLHUr/ko06ikBW7nwWRVh8iP/bRRx/t/vHHH7okGiYD5Nlv165d6L4DQRTiOQDjP8YbJlRJ/4ZsGDhwoLvyyisnMnRgpKP9ck9xnHbaadIHkuhtYSB/kCHsr1AqysJyvLxBo2FWjJBPMuOuU6eOCKGwY8OUYz9YM7wDBjAT5LdRidMNdHyORakMIolyTKJ0NhPxwwYA/BbLdBSXXXaZWFXiQNlnkIub6SKoSFDunxwwOGH54rug5O5hIBiSCBAv8+fPF2GQBAZ5kqn7rV3ZkMs9wrRp08SCkc3AEUS519GECRNEMPsHDdq9f1Lnh9/SjsMmspVC0v4TBZYvZAZKAUrC2WefLQrLzJkz9RE1E+Q7Fm4skLR1FH2sdNl6Q/HUYNCJa3Ns7ISs8lt68ezRHtmoKinFlkVBpNmHMGqgnHLOKCZPniwba2AQyVW+pfkcDDyLt99+W39Kl7322ss9/vjj9ado8GBMnTpVf4qGCWGYYTAJbDjFZNTbrhgvkB/FxCrHJeKdd96Rne9at24d2xmNay9f5ZhdfJjV+qGDMFOfErNjIJYQrpOPcowVBddVEAgx/tawv5NB5+CDD06srDLb3W233fSn4sCAVu6U+h7LuY6w/LVt23YZSw2CGotnHLjfcUHWBErRfyxVGCsuIQLLE2n3IayPhOvRfwmPQ9HDA4m3EmNL06ZNJQTD7My2PIDCTduiHsoJQjGCPMMYZgg1LSY2W0WJYMHF6NGjZVc9FgyQ2zSIkSNHxqZBMRkA1IxV/vejlG8J5r/gggsCF02Qkovd81jly4LCxQG5XMmxyMKkqEU+UfehlAtZtMKK07D8nvytLCRiFy3/PXD9Tp06yYK4pGnnWD3NxgKsmi0GZCHh/suZUt9jOdeRUowl1SF9kawvLODhxS5arM7eKGYBzaxZs2QhDovTagLF7j+W6pC6ik1WWFy2vFCIPrTBBhvI2MNCdRaNMh6SMvG3336TOqbfk92CvQSWF8iYQoo5Fs+WCyx8veGGG5wxY8ZkZC8vdKUWLVqkknkmG1ZAQ9bvLSVg4cKFTr9+/Rw1m5Vdb1idSz5iVveTOowVqwxSDNo0Gm9qGZRFBi9SvPAY2eBj2223zaxopezXX3+VwZ7rANdp3769vPfD9UjJs2TJEslXiUKw+uqrO2+88YYIE3bRI70T771pe1555RVp2KzsJkcw10fo8FtzDwg9Uh0BSjo77ASB8kQeZQbkrl27Sk5HdhoiQwJphbLNO8lqV1YssyNSoWHHINI6UW/lSqnvsVzriMT29evXj8zcwgr2qNXX7BZIjtXHH39cl1Q+xew/lmUhu0WjRo0kVVhUXuSaQk3sQ+UGYzgTAdpU48aNdWlpIVtI69at9adg0E+SZgxKA6sclwmk7UEJZZBmgCZ1EAqmSYtSTGbOnCkpbebOnStbbGNtRjAbpbsYkDJm+vTp8j+DA/eQS2oqBvbdd99dEpd37txZl6bPxIkTJaXPddddp0vKj1LfYyXUUa7wd3Xp0kU2QohK+1VpFKv/WMJh5zlSCmIwQB7XVGpqHyon8MiyYx9p5zB2WcKxyrGlxsNWrcw4yZVYKNcMCeYJGck1t2wxKPU9VkId5QITWkIvsH6wAU9Noxj9xxINm7kQXjd8+HBdUrOo6X2oXOjbt694fseOHRsbrrm8Y5Vjy3IBsd2Er2CdMLv9WCz58ueff0o4FLuJsWlCTcX2n9KCN7FDhw6yLqSmWfCXlz5UalCIb7/9dgmRCtvt0VKFVY4tyw3sZc9smThuiyUNiI9ki1RCf2o6tv+UFhaSYb3Pdt1FubM89aFSMmnSJGe//farcZ67QmGVY4vFYrFYLBaLRWODTiwWi8VisVgsFo1Vji0Wi8VisVgsFo1Vji0Wi8VisVgsFo1Vji0Wi8VisVgsFo1Vji0Wi8VisVgsFo1Vji0Wi8VisVgsFo1Vji0Wi8VisVgsFo1Vji0Wi8VisVgsFo1Vji0Wi8VisVgsFo1Vji0Wi8VisVgsFo1Vji0Wi8VisVgsFo1Vji0Wi8VisVgsFo1Vji0Wi8VisVgsFo1Vji3LDf/973+dOXPm6E8WS/7MmzfP+eKLL/Snmo3tP+XHO++8o9/VHN59913nn3/+0Z8shWB5klu5YpVjy3LBtGnTnBNPPNGpVauWLrFY8me11VZzzjrrLOfll1/WJTWTbPoPis3ixYv1p+pYpScdqMfu3bs7r776qi6pOaC0nXLKKc5ff/2lSyxps7zIrXxYwVXo90WBy40dO1Z/yo1ddtnF2XLLLVM9FzALnzp1qrw3rLjiis4xxxzj1KlTR5dU548//nAeeughaWy8Vl55ZenUvHhPJ7eUFoTtAQcc4Dz11FPO7rvvrktLy/PPP+98++23mXZDW/7zzz+l3fzf//2f07JlS32k47z22mvOJ598IorJ6quvLsdyHMfTPjt06KCPXMrnn3/uvPTSS3I8515hhRWc33//3albt67TrFkzfVQ08+fPd0aPHi3X4xwrrbSSKDzmHvfYYw9n55131kdX58cff5R+yW95cX36Se3atZ3jjz9eHxVPudeRAWvq/vvvL/VVLu0rTZL0nyVLljg33nijM2bMGOd///ufyD7KjjjiCKdPnz7OJpts4jz33HPOhAkTnBtuuEH/qjKgbaFEzJ071/npp59kLLj66qv1t6WhV69e0jceffRRXZIe5dDvLrroIml3jzzyiC5ZviiG/M1GblWKLE4VdeNFRQlMt0uXLm6bNm3c7bffHsVcXqussop74oknynddu3aVF++Vcuk2bdrUVQ8gc+zAgQNTPxeoBuD269fP7dmzp7vddttljtl3333lWkH88ssvbu/evd3mzZtnjl911VXdk08+udq5LaWB57PTTju5Q4cO1SXlwbBhw6Sdrbvuupl206BBA/eMM86Q77yoAcI977zzXKVgZI6tV6+e261bN/f666/XR1WhhJO09TXXXFOOVQLHVUJRzpOU2bNnu/3793dPPfXUzDV5NWnSxFXKjvvqq6/qI5dFCUa3ffv2cl1z/eOOO84dMmSIPiIZ5V5HXpAdm2++ufv999/rkppBkv6jBk137733dlu0aOEqhUaXuu7ff//tPvzww+6uu+7qKqXYrV+/vnvmmWfqbwvPhx9+KG3ilVde0SW5MX78ePfss8+W9kRbURMF/U1pGD58uNTlggULdEm6lEO/U4qgjNWDBg3SJcsXxZK/SeVWJcnitCi6cuxFzWZEkaRC6AhRIAh69OjhqpmHKLp+0jwX0JAaNWqUebiDBw/W34SD0FIzPHfatGm6xFJq6KRHHnmk/lR+dO/ePdPG5s+fr0uDoQ2aY6dPn65Lw0GhWX/99d2PPvpIl+SG6QdbbbWVLklGu3bt3C233NKdMWOGLsmNSqgjYBLOYFaTSNJ/Dj30UHe33XYTZTgIBl6UOZ5JMZVjjBpcc/XVV3fnzp2rS3Nn7Nixcr5SKsffffedW7t2bfett97SJYWj1P3uq6++cmvVqpVK36xkCi1/s5FblSKL06CkMceY3DGlg5otyP9hYLq/6aabnE6dOjlqVqVLq0jzXID5n5icQw45RD5ffPHFzgcffCDvw2jdurWz/fbbS6iGpfR89tlnzs033+z861//0iXlh5q163dOaJymYeONN9bvHHGzxfH6668799xzj9OwYUNdkhs77LCD/I+7PCmLFi2SMKUnnnjC2WmnnXRpblRCHQHhAw8//LAzefJkXVLZJOk/jz32mIRL/Pvf/5ZQiiB4JtRxscGNDMjyVVZZRd7nw4YbbqjflY5+/fqJS32vvfbSJYWj1P1uiy22cE444QSnR48euiRdlBImoULDhg2Tdvz2229LKFC5UWj5m43cqhRZnAYlX5BHfEk29O/f3/n666/1p+qkeS5AqPKwUKaJmSFW5u+//9bfLsuqq66aihC2pANxa3S0gw8+WJeUH+utt55+50g8YxReARN3LAuoUFaOPfZYXZI7W221lfz/66+/xl7XcNlllzmnn36607hxY12SO5VQR9CgQQNZn4ACUxNI0n+IFYS453zQQQeFxkgWCtaCEN+M8o4Mz5dsx5e0wThz//33Oz179tQlhaUc+t0FF1zgTJw40XnhhRd0SX4gwwYOHCixtkOGDHFmzZrlrLHGGqJ4oiA2adJEjGLE15YLhZa/2citSpHFqaAtyCVjnXXWEbP74Ycfrkvi2XHHHQNjgNM8lxKq7u233y7v77777ox74OKLL5ayIIiTUo1Rf7KUkh9++MFVnc296667dEl58vjjj2faFrFXYZi2ZY594okn9DfBHHXUUe6cOXP0p/ygH5jrvvPOO7o0HNx4e+21l9xzGlRCHRmefvppuTbxrpVM0v6z3377yd+bxM1/3XXXFTWsIm3efPNN+VtLFVZBzCfxoWn1qzjKpd8Rz96qVSv9KXeIr912223dm266KXQNEbz44ovuIYccIseVA8WQv0nlViXJ4nwp+1RurNrEauuFmc7333+vPyUn13N17tzZUQ9P3l9xxRXOlClT5L2lfHnggQfE7cOMuJxZf/319bvo2bVSUpzmzZvrT9HHsvp4n332cTbddFNdkh/GcgFffvmlfheMkilieRk6dGgiV1oSKqGODEpxkr9bTah1SWWStP+ss8468v99990n/0ex7777ltz6Wqkwbo0YMULGobT6VRzl0u+w5pIFhWwhuXLvvfc6l19+uVihCdPAKxxG06ZNxdtAWNE555yjS0tHMeRvUrlVSbI4X8peOSaWTc2E9KelECNDCEO25HMuHjYuBQYMwiuI6bGUL+PGjZOYNW/cUxykuyEOLagjswFCNjFfSUkibH7++WeJHcPFaAgbKEiXc8stt0i7TotshPNtt90maYGIi0yLSqgjA3Guu+66q/P000/rksokaf8xKaDuuOMOZ/jw4fI+jN12201y8xYLFEr6LSnBwmDNCWmqUDzJGUzMKf2cVFRJ+eGHH0Ru/Pbbb7okfd544w1p+9nGGhMewN/izy9NeCDKX1SMbbn0uwMPPFCe5YsvvqhLsoM0fE8++aT8rdxvEtgkA1c/4/x1112nS3Mj33GlGPI3qdyqJFmcL2WvHH/33Xf6XRVYIDbYYAP9KTn5nIs8nczG4OOPPxZF21KeIEjffPNNZ++999Yl8RCj1a5dO1mYcfTRR0u8Fudh4GvVqpVz6aWXOtdee61YMaZPn65/lT9JhA0xcrQ3jjWWt7Bjr7/+erEcsEA1LVCSzHWjhDOCHuE8aNAgXZIOlVBHXhjMkRGFmEwVg2z6z9lnny0xmygeeNiI5UROEh+LFcsLC6W9i4NQqFlshNKM0te4cWOJcaavYcTAq0cZ98HAzbHetsXCZ+KY+S3n4Hh45JFHxKLN9ciVeuqpp0q5F5QV4htR6DF41K9fX5RF8sAyJhCvHAfHnHTSSRK7SpvC8nXmmWcWREl+5ZVX5P+kMg2F+MgjjxTFjnpmobjZMAQrKh4B7p9F5Oedd56U+ymXfkeb4tymDrIB5Yv7428eNWqUTM7i5Df9lg1viFfHKEa8M20jF9IYV4olf5PIrUqTxXlBbEUpiYoTfv/99yUNz5QpU3RJNGmeyxtz7IX8xVyDNHD+/JkmzsZSWqZOnSrP6KqrrtIl4fzzzz+Sq/HRRx/VJa47b948ibccMGCApKlSA6mUE2+uOrvk1U4LJbzlXnmRY9vPzJkzJSWPweSZVIqILqmClFmFSlunBn657mGHHaZLloXc4k8++aT+lB6VUkcGs0Zh3LhxuqSyyKb/wAMPPCDy0Dwj8+I5KAXUHTlyZGCaN57rN998k8nlyvFcWymXEhOqBnv3yiuvlO/UQOu+99578p2BY8n7yvfkIeZ7UMqH/LZPnz7y3T777CPlBlJ5knc1KFcs7UMpI64a3HVJFd6YYzWoywv5Ybjvvvvk+7D0oPlAPZIHlnqJg3pp2bJltTzI559/vtQh6UaRd0CqNP5W7pncuH7Kqd/xvPbYYw/9KTk8I28eXlLhKWU7NN2qUgzdgw46qJqegO5AHt5sSHtcKYb8TSK3Kk0W50PZKMckjKZSeanZuOSoZDMPvstWOU7jXGHK8dy5c92NN95YzrX11lu7v/76q/4mmXL8888/S6A/ApRFBldccUUmEJ3G+fvvv8v7UkESf/52ch8iYMlrOHr0aPnbgHslsb8XGjmLGBhsWJjDa/LkyVI2a9YsfVQwaqbqvvTSS+7rr7/uvv322/L/yy+/LALeCxsNcNwbb7wh52diEibgzOICBqs47r33Xveaa67Rn6owg4Y3CX2dOnWk7IILLtAl6UDeUs57+umn65IqaL8khDdss802cixJ3f3wzN599139KV1QCLgum+MEQQ5Y2kuhqIQ6MowZM0auf/PNN+uS5DBgskkRE/l8XyhTI0aM0GdOTjb9x8DfvNVWW8nvgl48k88++0wfXZ2vv/5alAOesVf5BZRB+uJaa60luez9MJA3a9ZMf6oO8oRr+5Vj+jw58Y1M84NMjlKON9tsM9nQwA+ye6WVVpLcvCjoacKiNOo3DpQX8vwzznhBKebeGSPZ2AXMQq811ljD/fHHH6XMT7n0O8ZVlPtsYfLkfxYoyCwk9Y8fjO0HH3xw4KI3FuiZektC2uNKMeRvUrlVSbI4H8omrIKwBTVzyrxw9+SaLzjNc/nBVXDnnXfKe2LZvHE1cZBHsEWLFnJ/uOJwdxGIjjsSVwguObZNTBtcQmzvSBxhGFyXv6VRo0bOV1995bRt21a2g1UNWNLd4G7k7+3YsaNsD+mFGCPKcBHh9uOFy468hUpx1kcF880330hM2GmnnSbuUfJaEgPod2Ph6sEtxoIU3J7kqf7www/1t9Vh+0xQA4H8HwauYNw6uIa9UG7O0b59e/kfcI3xd+XqtgrDpMfxu55YFIIr2ZtbkvYH/mPfe+89cWHhXi4EJu6NGE0lN+S9gRRDpP3imRSKYtUR7Yy8vrhAidtTwl4Wp/ljNqMw90pdZQvub9y4ab3UoKTPnJyk/ccL15k5c6YsrmERE+EO1LUBGYLblv7up169epLqjXbEtrdeWDhFaIRSTALlF+EfYanNwtaS0C5wbRN+EQQyOWodypw5c5zzzz9ff6qCPPtrr722xJjiNo+CdqsUNP0pHp5JkufBgiraLvfhBZc7MA4o5Uben3LKKTKWTZ06NTSHc7nIJu6D82YTssLYQ8ikP70q4y+yHHc+ccVAjDGhFEqhDYzXPeywwxLHPBdiXCmG/E0qtypJFueFqMglxFh7g0IhmNkzS08jrCLbc4VZjg1KmZNr8Xr22WelLMpyzKxUCXlx0fjBOnLEEUfIuTguba6++mo5N66cILDSYpXA3YSbMwjcTaS94zxq8NOl1WEWyPcNGjTQJckhzRO/VQJLlwSD26hTp076UzDm78UCHQXpqoKsYzwjfk/an2LA9rpcDyuHATc0z8tvSTPtpGHDhrpkKUqAiAW/UOD647q8/Cl3evXq5d5yyy36U2EoRh3x3Js3by4pijj3okWLxAKEBRbLnf86YZAOiesb93WlkbT/xIEbGS+TUorlfLzC+q5S0uR7npGXL7/8MpMSii1l/eBqx1oaBJZBfue3HGMZpFwNzmLRuuOOOyTEwAsy2Y+xHGMZDvoejBUwyErOdRg3SFvFWMBxScG66237Ydx2222BFs4TTjhBrpetJ6FcZJMJZyRcJil4IYM8AAa8kbQNNYmUvy8qHSHeU0I0klCIcaUY8jep3KokWZwPZb0gj9QizZo105/yI81zAcH6WDygS5cusatgn3nmGUc92MBE+FhHbr311mqWljTBMo1VVw16uqQKVjOrBiyzWlaqqgmE/qY6zMAfffTRzC6EQZidCaOOCcP8Nm53Q1bPx62gN7NUYyEJY6ONNpLMI37MwhXV+eX/QhM0u1YTM7HSs9jJiznWu/qX54LlLZvMHNmy5ZZb6nfVF4WoCZHsLIUVppAUo466desm3hwseiSkpy1yfiw6auB0evfurY+Mxmw4oZQ2+b/SSNp/4lh33XXFczdp0qTMojg2sfA+F4NSfsRa++yzz1b7HovaJZdcIgvzJkyYIOk4DWRwwKKUJNuQF36DPFTjn2QxUMqAtG8W5WERXrBgQWSqL+R+1PeAPPVzyCGHyAItLODZZJ0gYwKevSTPA+9j0HHG25fthkjlIpty6VPch7FyBoFHAss53lzjuQyDsQJLZhIKMa4UQ/4mreNKksX5UPbZKlAmUSrTIM1z4bbChYVCi5vt3HPP1d8EwzG42nCBBEHjZwAoBDRQBpig0BIGA+6LHJBrrbWWLg2GleQm33M5YwbLXENUCPOAYu2s5xc2KAAoCbg9/ZhjcQMyuDNwIuDj2l++GLceGOGMAsDqb1ZIxykL+VLoOsLtzCATNIEmxAjYajYJv2nXb9TAXM5k03/YZTQOZCQuX8ICaDNB4VB8h2z5+++/JXzKwISdrAso14RCPP744/obR9KvBWWiSALyEIWRrA1G7hE2RrgboS1hIVuQa1vfZpttMgaVbDBhAbnKMzJz4M7n+tnmki0X2ZRLn+JYJjph8DcRAkRYA4oYGVbC4O/OJUOWl3zGlWLI36R1XEmyOB/KXjkmzQzCKg3SPBcw4zQzNiwi5PYLg1npwoULZYYapiCTdscfK5YGCAgEPwq6FxohszhmZcQUJ4G4rEJZuNPCWE6iBGMYdOBSK8f/+c9/nIsvvjiwns2xCEb+PgZzBHy21rNs8QpnYtKBmHQS5gd5Q9Km0HWEgsTfSMycHywqXAfrx+LFi3VpOKbdYUHKBeLtUc7yfZHOC4UyW7LpP8QII9fiYMA9/PDD5X1Q3DEYRRelF95//315Hjw3Bl4UAPMdz4EBlDRf2UK7AKxS3D9ePxRIvHc77rijxKribSsX8HrijctFnoHZ4jsXi2W5yCbOt/rqq8cacLxsscUWkposCJQ14q+vuuoq+X+UmpCRZi1MQf7000/lfLmS77hSDPmbVG5VkizOh7JXjssdQhVwx0GUawPBhJUCywfuHGZACGNyG5oAcxo6LgTAmsvCMywqvMjhSQfFNUOuUAYbGgruBwPuQspokMaiwywNgc89+pOZM9vj2tttt11iFyruz3JM2O3FLAjIZTBBOOI+23rrrQNDTJhMpI0RILizpkyZIjP4PffcU8r8mGOBe33nnXdyWnSVLdSFaZtYLr7++mvJHYoFrhgUuo5o/0wgx48fr0uqYMESgxuLR0wdRGFCrHJRjlFqmcDTx/N94el5+OGH9ZmTk23/CVNA/Jj+ZPIR+zlaLyRjIS9tzGsZxuKJfCREg0k+i38wTgQNyHGwyyk7rhlQuqkr5DdtC4sVbcbrCi41PJNc5BmYhWS4sv3Qtj///HP9aVnKRTbRp7LtT7Q3xlG/EoVizMLvwYMHy+JL4FhkOyE2QQoyi8TzCcvMd1wphvxNKrcqSRbng1WOQ+AB8IqDMA0aKQI2SpgixBmoiJXBtcB7VrMS6oCrjbAGY9EA4nGIqSPTBkKR2DuUWLZ5pJHhIuO3JCk3EIuDhYGYNs4HzIbDkosbC042Qgcrhnc1ajliZtlhFioDQpKYQ68lHyEIrKz3w3cmbswPz87MpLPF68bq1auXxCWG4RU2uKZIuJ6UfO6R525cwghn2i4ru7OJL6+EOgqCJP3076RZSrA8Qi5xlkxksfYiI/J9cR7i9LIlaf8xxO2MZyBjBQMaf2MQeLDwTMGDDz4oSrK3H7Zr105kMlkm8gmpoF7o90FgnST7BddhPUa5wDNhE6u4lfrUGXGoBhRDYzkOkml4U6OssaXsd17oU7n0p0MPPbTaBNGrGGN88sIEDAuyX0HGA0MsbVKvbprjiiEN+RtHUrlVSbI4H0quHBsFNIkiGkea5yJGK2kAPgpr2C5DXlCkcStwXiwXWGBxC/KZHWWwyvoxaYqIizIgIOmAKM9eAc4sGVehv9OHdWqz+C0X12s5g5sJtw2zzChw8xJOgnvKwCQEmOF7oU0RN0lqGT+EpxAzTjok4/bNBq8AwXpGqqEwvIIJqwcWwiTke49glCYEOR4K0hslpRLqKAgmn8S3kUKoefPmujQao5ywq1suMBDSN/N9+VNYJSVp/zEMGzYsM/iHwfMntRwDpH/Rjhej8OKRQ5HwWoZRnFEGUMaxnAW5Xb0YRTJoPCDlHPIyCFN/fgt31PkMccprruAVJOYYRS0MFiwynuC2N4uqWAhOTGiQUQOlGQtclHGkVP3OC/ePQphLKjjGT+KJUVSNYnzllVcuM0YaghRkvLCEDiQlrXHFTz7yNwlJ5VYlyeK8UA+nZJCuQ80CkDSu6rjLpNPJhrTORdqQJ554QhKOK6HhqocRmizey6JFi1wlrHPaIY+k5KSf495JxO1HNSpJEcS9AUn6SVGjGp6rZm1SBpdffrkkA/fD/XNuUr544e+kvH79+rpkWdh0o1mzZpKmhRRE7NTErjakWfFv8KGEiZwvrg647m++VCykogm6Rz+kU7rwwgv1p3DUJEE2aQnj559/luspJUA2FwHS7/To0cPdYIMNZLchL+y2pTql/lQddgDjXLzCkrRHMX78ePmtEn7SjqJQAkyOZeehuVmk/cv3HoGNa8y1lWKhS5NRCXXk57nnnpNzkD4wG9TAW7Q0gIUirv8Y1GAn6ZUaNWokG00EoRQTSenEBggLFy7UpcEsWbIksxvYjBkzdGkVrVu3lu+uvfZaXRIOqZ84lvN5r4vspBxZphROXboUrs+9Dhw4UJdUQWpPfqcUE0lt6Yc0mCuvvLIc8/jjj+vSYEhLx3FJoS1y/P33369LlqV3795yTIsWLeQzf9tBBx3kKgVRyr31+emnn4o8j3sepeh3fp599lk5r5pU65LsYExs06aN1IVSLHVpNKR5I7UpOwtecsklujSeNMcVP/nI3yQklVuVJIvzoejKMYoaOR55bbjhhqKAbrzxxvI/nymvV6+ee+mll+pfhJPmuQDlEkG/1lprSUPmxXvKkgjjKVOmhG7v+OCDD8pOUGEgpLjemWeeqUuqMNs6GsWZnfXovAg9BhwE+j///COdP0iRD1OOUVBr691uvLvaBMGx5557rhzLTjxB10mqHKNY+3+vZtbyW3bki4KOOXjwYP0pHDXTl/PNmzdPlyzLOeecIwMhwomBhWtzX5MmTZIJFu2GAZFB5LHHHtO/WpYFCxbIgMQkg3yOf2W5O5bJn0ouzTiY9HHsjTfeqEuSke89wqBBg+TaagavS5JTCXXk5ZlnnhElHuGeDfxd7E5H36xkkvQfQDkeMmSI5Cw95ZRT3O2339696KKL3EceeUQMC8hUyuhnP4bswuaHncJ22WUX/ak67Ii30korifwLgx3ukKUosYwDGBGQ4+RnBbbvRQbRp9n5jH6O0snvMEQg673yCeUIY4n3fLxnnGGHT9om5VyD78y4wf/UTRDZKsdGVke1K5TfBg0ayM5sRm5h3MCo0qFDB5nw3HPPPVK/jCFxijEUu98FwUSFSUc+CiH7Fhx99NGBuywGgdJ31llnyS67jK3ZkNa44icf+RtHNnKrUmRxvpTUcrw8gbUzrlFjySBJvB8sLwjbY445RgYhEqLD9OnTpeExs2arZoR+EHRMjguyyt6pk+9HJUs3GMsJnT+IJMoxCerZTMTPF198Ib+lDqLAUs4sMg6UfTwJ/H1RMEBMnDhxmckBgxFbVPNdNtuG8vyYrGTD/PnzRRlJAs+yb9++GS9CLuRyj8CmCv379896sPBT7nU0YcIESXDvH4xp916lKQh+Szt+7733dEllkrT/4PHx1gkGgFtvvVWUAhQyLG94urJpMzzrmTNn6k/Vod28E7C9bzZ8+eWXGYsxSgGbPzDpZuvuXCaNuZCtcgxYDjH2xLVB/g5kl9+qh6eP9olCn5Riy6Yg9tprr8ANYLIFRZQJAnUQxeTJk2XShxKbq6xLe1yBtORvENnIrUqRxflileMigXIcZlU2sNsTOxwFwT7mWExwz3g7N7vFsJ95+/btRegHQSOi4YeFLCB4mDVi+Y4CiwrnyUc5Zpch3FVBILiYBIS5X5gkHHzwwYmFCqEqu+22m/5UHBjAyp1S32M51xGWybZt2y5jYUK4H3DAAfpTOIQc7bnnnvpTZVOK/rO8kItybCx2QaFzNZW3335b/mYmL2lAOAzjIH2ZkAY8BpwbzyWGl6ZNm0oIxieffKJ/sXxQjnIrX1mcLzZbRREhdVrPnj2rZaUwsAKbBRedOnXSJdUhZRu/YxWsNxC/a9euUqZmqtV20fGyaNEi+d8s0vBDto1WrVrJyl42NlHKtP6mCqWQSjB81CIfk4nAXM+LatCy3zybjphVt35GjhwpC2FYle6/B65P3bBwIWnaOVbGsnc+6WaKAYsjuf9yptT3WM51RJYXFn2RZ5i0YSza4UWO8u222y42qwvZGFgARe7UmkCx+8/yhMlk8JveeCEJe++9t6QDZYHZ8sLNN98sKejYCCYNNthgAxmHyDmsJiiygJL0iTwH6hcZQHYL/2LMmkw5yq18ZXEarICGrN9bCki/fv0kBQmKIasu2UqUhwyvvPKKrOZGMY1KNM5qXVbbDhgwQJcsFbJ169YVBZdk5n4QLnzHal8U20aNGsmq8SBYcc5qcpRwchFyf6Q2IisGAoT0cKR34r03JQv3f9FFF0keZjJvsMIcQcNvaV7cIx3Q5Om84IILAreyBpQnsngwIKP416lTRxL0s0KXlDHZ5poklR2rlL3ZPgoFafrIlWqeazlS6nss1zoidy65wP+KyNzCqvWoFELsVvXDDz9ILvOaQjH7T02HrARkKUIOkscVObneeuvJmMBgj3EgDn6HDCdlW9COpzUJxhqUVP7WxgXaPdZSfnIrDVmcBlY5LhKkhdl2223FaoYVdcaMGZJ8nfd0fJLQxyW0R/EkhYvf8oZCiYIc9/ukzJw5U+537ty5kn6O9CsI4rTOnwRyLpKfmf8ZDLiHXFJTMbDvvvvuMqEo5K5XEydOlFRK/o1WyolS32Ml1FGu8Hd16dJFktwHJfmvVIrVfyzJIR0oBhYMCMjnmgieQzbOIi2dydlvSZ+aKrfSwCrHlhoPExHyIpLXMy43aq6QVJ6QkVxzyxaDUt9jJdRRLmDpwN1HflRyntc0itF/LNnB5i54IpNuwFJp9O3bVzyUbO/N32lJn5out/LFKseW5YLJkydLaAszZazvFksaEMd/1FFHyU5RJMSvqdj+U17gcu7QoYOsE6lpFn0U4ttvv11CeaI2jLHkzvIit/LBKseW5QbCWLBCmJ2GLJZ8IVaP3TQJ/anp2P5TXrCYDGt+tuswyp1JkybJTq81zcNUTixPcitXrHJssVgsFovFYrFobDCPxWKxWCwWi8WiscqxxWKxWCwWi8WiscqxxWKxWCwWi8WiscqxxWKxWCwWi8WiscqxxWKxWCwWi8WiscqxxWKxWCwWi8WiscqxxWKxWCwWi8WiscqxxWKxWCwWi8WiscqxxWKxWCwWi8WiscqxxWKxWCwWi8WiscqxxWKxWCwWi8WiscqxxWKxWCwWi8WiscqxxWKxWCwWi8UiOM7/A7pun3OEHCnGAAAAAElFTkSuQmCC;" parent="1" vertex="1">
          <mxGeometry x="757.5" y="720" width="341.53" height="110" as="geometry" />
        </mxCell>
        <mxCell id="4iuUuKdbxl8gIZwIrT_o-53" value="" style="shape=image;verticalLabelPosition=bottom;labelBackgroundColor=default;verticalAlign=top;aspect=fixed;imageAspect=0;image=data:image/png,iVBORw0KGgoAAAANSUhEUgAAAPQAAABzCAYAAACvmi+eAAAAAXNSR0IArs4c6QAAAARnQU1BAACxjwv8YQUAAAAJcEhZcwAAFiUAABYlAUlSJPAAAAmMSURBVHhe7Z2JsdNIFEU9kwWEAYQBZMGSBSYLliyAMIAsPoTh8VH5ufprJFub1a32OVUqfW+yJL/b7/brlv4/hyM7EamCf09rEakABS1SEQpapCIUtEhFKGiRilDQIhWhoEUqQkGLVISCFqkIBS1SEQpapCIUtEhFKGiRilDQIhWhoEUqQkGLVISCFqkIBS1SEQpapCIUtEhFKGiRilDQIhWhoEUqQkGLVIQ32pf/8evXr92PHz+a9ZMnT3YvX77cPX36dPfnz5/dq1evTu+SElHQ8ghE/O7du92HDx8a8fL448ePjZgR9bdv307vlBLRcsuZEPPz58/PmZi/WYBMLWWjoKWBDIyY4fPnz806wHZDCFvKRUFLA31mwFa3+fLlS7NW0OWjoKUBuw1tW03mhi6hS3koaGn4+/dvs25n4cjcIXQEHiKX8lDQ0hD95Fi3CaG/fv3abF0wNxc0rXnYOSmXEGz6W33//v3cf0bo/Jb3Iua5ccu5y8HNxqEJBOxa2DMCAdvGEjbu7du3zVrKIKrciDuCmb/5LRnG4rdkfLpmUXOs0YgBMdoXp4zPc57aY/MvXrxo1py79ojBzUHQS/Lw8HA4noDD8WAOx4M5P8ffPHcMjPNayuPnz5+HY4A2v1nAc/x+rGuGYyQu4/iJU5au4+Y98Xp6rtLnc8T4ohma1ipaeVp0WvMUWrSwIl2vD4Es8f79+9Oj5Xjz5s15MoXcHxG7ZNSjGB/FcleW5rVwMUfBN2uI+AxnSvZe09EsKui+gwwQM6KGmFo4Fk5UfMeS8CNa7Llf0riENFZD5Clhq7sSU9oYdOngpiDoJQhLzYLt6GK/35/fk9oUkdwQk6m1Pgr1HKttUlvdFeth14n3tVksQ0eLBX02gyGPsCKrt1w3JG2RpXy6Mm4KMUqsQlcGTruOl2Kd75jSrZzDIsNW7RJ9n3UNMdtXlZJJu3RdF6Skr1+K9WfPnp0erUiTp2eSWuk+m3HNpoiUwiW7DfHatVjPwSKWO7XSfcWuITZlKOk44VLQEs/ZJ6mHSwWvIYXddoFtTRax3Ol0wWPLdPrrMV02hefGipOGg8/dYhFJ46BrGmzMeYe+BMA2stjtI4tk6GvDVX1FhlyFgy3DuUyDSobRl2jaEMdR4OzKwOlMsi6nGRk8V9F3EUGnNqTrQFLBxyB9iPxaxVEegx2ke6Coh0OmPfZ3T48ukyafaxNKumKXz+acpLSIoDkJMTsmPQk8DqG3BR2tICdFhhHnmcwgtyNES/YlS4doeT4aUn4Lno/4TWM9Z0wvNg4dwcaaE0GryEkJAUcWTy3Kp0+fevsh8n/C6kWDKbeBGP769eu5iEuMRlwjcGK7K9ZTgediMUEDB0gLFgfatiM8z4HzHoNyPAiac9o+r3Ib0njtOu8lxvOigpbbQv+5phl2sjzesWQjhOsRuYSC3gjcFKJrGqJIioIWqQj70Buh9P4zFeHfv383XQMKRBbu8mCG3gCl95+pvrN/TKhgzXhtDLHJuijoDcDQSKn9ZxqbEC9iZpyWNc/xmqyLgt4AMTupRNg3BEyjE4TdLnm/a8U+9AbAwkbmuwSimpIVEeC1bY+B7MzimPn6mKELB4FGFrwGgmZ6bdz3HPhc+7Nsj/cwvZH3s16KsODOBMyDGbpwECkCGTpHmKt9ENXQm0ggaCrUc286EeAm2A6OQtZHQRcOYoahGQ8xc+EADL34he/gAoO5l/zROLAds3M+tNyFQ4YeM6aLgKmII+zUel9iCQHSKHCXjtgWj9NCmayDgi4c+rtjJ2kgKrItoooMf40h2ZlGogsse1S0+ZuFxsTJJeuj5S4YBISNnXqN7dj+dB/RL4a49je9sD/u8JHC+70Rw/oo6IKJ7DrVEiO2sf3pNoiZTBv7QAODoFOx9mXuOY2ITEPLXTBj+89tENTY/nRK9IPTBgU73Z61xvd0LbI+Crpg5goaECPimrIdvj8VZmRi+8bloqALBfEskeXIslw0MUWEFLrSbBxZnm112WwvysiPgi4UxDP3ggwyLKKcOr5MASyq1xAZ+5KFN3vnxaJYoZDtsMtTBYLo5lTIgW0wLRRhB4gahswtl/VR0IUy54YGCHHM/bsj4/ZV03m93ZduixmhI3xFnhctd4F0CWYMZNUxYmYc+ZITaO9LW9w4ARoE1pIXBV0gc/rPWPUhn2X4CQEiZgQ61dqzrxTd2v3tJWAfZRxa7pXAkrL02dqUqRNK+NyUKjPfM/a7Ao6JxoCGgYZk6nbasF2OJfd/otgaCnolCHiy2JAA3doN9cO2z51imqKgp6HlXgECk6AnSK8xt/+cA2w3+8yiTc6Lgr4xCDS1wTy+RFjYLRF9fo5t6X70WOJ8U0vA6bBcO+c1oaBvTIwFR9a9lqURRDruuwUQM/vNsS7Vh54C5xbrTwNDo8h5p+uyNcczBwV9Q8gMBDvBFVmXm9FfgqAcUqUuCURMpTtnfxerH1eG0Zdnn7bmdJbAothKxDBRZI4uaADGTAiB1M6XDg1Vmi0vWXQaNpZLGT8VLNYaOLepw7mn7AwKeiUITjII9FWDec+Yyi6CiG1ugf1+/0iENHKXHAuvX5qHHjcijMayiyUr71tAQa8I/TtEiGC77GBk25z90FIY07gh5hD/vd9t1D50BhB1FwTxPfb75hIWm5sU3jsKekVCrFRh20R/UkGPJ85Z7iGzElDQKxIZhEzcxdaGq0qB84ao2w0ljSRW/J5Q0CvSrvCmxNipjIfzSt+ZKjp1CvrUFAvjBon3hIJeEQQbom5n6RL6z+1Gpq+vXyKcV4qJ3N0UYSNwKtxT79ayVRT0yoStbg/X5BQ0301WI6PxN9XleJxznHvKcBOfSRvOu4NhK1mP/X5/OAbc4ZhNTs8cDg8PD4djJjk9Wp/YF/Yr3Y9jhmuek+1ghl6ZmNZJJgxLGxc35AKrGvuSjuNSNb7bTLdRFPTKpLY6hlly95/57qgQp/uRu6GR8SjoDETWi6yYW9BBmo3ZNxYEnboJKRsFnYEQL4UxhFKCraX4lWZjsjP7xcJrJeyjXEdBZyCdYFKCrY3sm+4H1XgWxnOdW74dvDgjAwg5rpJinBSB5x4vLcUpyDwUdCbiyivY0g0BpWy03JkxK8qSKOhMRGHMYSFZEgWdCa/dlVugoDMRVtsKsiyJRbGMXLtnlshYFLRIRWi5RSpCQYtUhIIWqQgFLVIRClqkIhS0SEUoaJGKUNAiFaGgRSpCQYtUhIIWqQgFLVIRClqkGna7/wBN62P6CHXWkQAAAABJRU5ErkJggg==;" parent="1" vertex="1">
          <mxGeometry x="927.0400000000001" y="115" width="137.92" height="65" as="geometry" />
        </mxCell>
        <mxCell id="4iuUuKdbxl8gIZwIrT_o-8" value="&lt;div style=&quot;font-family: Consolas, &amp;quot;Courier New&amp;quot;, monospace; font-size: 14px; line-height: 19px; white-space: pre;&quot;&gt;num_hidden_layers&lt;/div&gt;" style="rounded=1;whiteSpace=wrap;html=1;strokeColor=default;align=center;verticalAlign=middle;fontFamily=Helvetica;fontSize=11;fontColor=default;labelBackgroundColor=default;fillColor=default;" parent="1" vertex="1">
          <mxGeometry x="140" y="380" width="150" height="30" as="geometry" />
        </mxCell>
        <mxCell id="qGL5-rrdzSUx7QEBZHQM-4" style="edgeStyle=orthogonalEdgeStyle;rounded=0;orthogonalLoop=1;jettySize=auto;html=1;entryX=0.273;entryY=-0.005;entryDx=0;entryDy=0;entryPerimeter=0;strokeWidth=2;" parent="1" source="4iuUuKdbxl8gIZwIrT_o-6" target="4iuUuKdbxl8gIZwIrT_o-7" edge="1">
          <mxGeometry relative="1" as="geometry" />
        </mxCell>
      </root>
    </mxGraphModel>
  </diagram>
</mxfile>
